<?xml version="1.0" encoding="utf-8"?><svg viewBox="0 0 199 55" xmlns="http://www.w3.org/2000/svg" xmlns:xlink="http://www.w3.org/1999/xlink"><style>:root>svg{display:none}:root>svg:target{display:block}</style><svg fill="none" viewBox="0 0 20 19" id="a-favorite" xmlns="http://www.w3.org/2000/svg"><path d="M14.5 0C17.538 0 20 2.5 20 6c0 7-7.5 11-10 12.5C7.5 17 0 13 0 6c0-3.5 2.5-6 5.5-6C7.36 0 9 1 10 2c1-1 2.64-2 4.5-2zm-3.566 15.604a26.953 26.953 0 002.42-1.701C16.335 11.533 18 8.943 18 6c0-2.36-1.537-4-3.5-4-1.076 0-2.24.57-3.086 1.414L10 4.828 8.586 3.414C7.74 2.57 6.576 2 5.5 2 3.56 2 2 3.656 2 6c0 2.944 1.666 5.533 4.645 7.903.745.592 1.54 1.145 2.421 1.7.299.189.595.37.934.572.339-.202.635-.383.934-.571z" fill="#909499"/></svg><svg fill="none" viewBox="0 0 20 19" id="a-favorite--active" xmlns="http://www.w3.org/2000/svg"><path d="M14.5 0C17.538 0 20 2.5 20 6c0 7-7.5 11-10 12.5C7.5 17 0 13 0 6c0-3.5 2.5-6 5.5-6C7.36 0 9 1 10 2c1-1 2.64-2 4.5-2z" fill="#FF2F2B"/></svg><svg fill="none" viewBox="0 0 16 16" id="armchair" xmlns="http://www.w3.org/2000/svg"><path d="M15.063 6.688h-.938a.937.937 0 00-.938.937v2.813H2.813V7.624a.937.937 0 00-.938-.938H.937a.937.937 0 100 1.875v4.688h1.875l.938-.938h8.5l.938.938h1.874V8.562a.938.938 0 000-1.874z" fill="var(--actual-card__ptags)"/><path d="M3.75 8.563h8.5V9.5h-8.5v-.938zM1.875 4.344V5.75c1.034 0 1.875.84 1.875 1.875h8.5c0-1.034.84-1.875 1.875-1.875V4.344A2.347 2.347 0 0011.781 2H4.22a2.346 2.346 0 00-2.344 2.344zm8-1.132l.663.663-.663.663-.663-.663.663-.663zm0 1.875l.663.663-.663.663-.663-.663.663-.663zM8 3.212l.663.663L8 4.538l-.663-.663L8 3.212zm0 1.875l.663.663L8 6.413l-.663-.663L8 5.087zM6.125 3.212l.663.663-.663.663-.694-.663.694-.663zm0 1.875l.663.663-.663.663-.694-.663.694-.663z" fill="var(--actual-card__ptags)"/></svg><svg fill="none" viewBox="0 0 16 16" id="back-btn" xmlns="http://www.w3.org/2000/svg"><path d="M5.219 7.333h8.114v1.334H5.22l3.576 3.576-.943.942L2.667 8l5.185-5.185.943.942-3.576 3.576z" fill="#4383FF"/></svg><svg fill="none" viewBox="0 0 16 16" id="bed" xmlns="http://www.w3.org/2000/svg"><path d="M15.352 0h-2.165v.938h.648l-.938 1.875h2.165v-.938h-.647L15.351 0zM11.54 2.813H9.375v.937h.648l-.938 1.875h2.165v-.938h-.648l.938-1.875zM5.778 2.63c-.21.12-.377.183-.622.183-.775 0-1.406-.559-1.406-1.334a1.4 1.4 0 01.183-.695L4.381 0l-.9.085C2.032.222.939 1.354.939 2.813A2.816 2.816 0 003.75 5.624c1.459 0 2.59-1.094 2.727-2.544l.085-.9-.784.448zM13.656 6.563H7.97a2.344 2.344 0 00-2.344 2.343v2.344H16V8.906a2.344 2.344 0 00-2.344-2.344z" fill="var(--actual-card__ptags)"/><path d="M.938 12.188v-.938h3.75v-.938H.938V5.625H0V16h.938v-.938h14.124V16H16v-3.813H.937z" fill="var(--actual-card__ptags)"/><path d="M3.281 9.375a1.406 1.406 0 100-2.813 1.406 1.406 0 000 2.813z" fill="var(--actual-card__ptags)"/></svg><svg fill="none" viewBox="0 0 16 16" id="blue-check" xmlns="http://www.w3.org/2000/svg"><path d="M6.667 10.115l6.127-6.129.944.943L6.667 12 2.423 7.757l.942-.942 3.3 3.3z" fill="#4383FF"/></svg><svg fill="none" viewBox="0 0 20 20" id="blue-phone" xmlns="http://www.w3.org/2000/svg"><path d="M17.5 13.683v2.947a.833.833 0 01-.775.832c-.364.025-.662.038-.892.038C8.47 17.5 2.5 11.53 2.5 4.167c0-.23.013-.528.038-.892A.833.833 0 013.37 2.5h2.947a.417.417 0 01.415.375c.019.192.036.344.053.46.166 1.156.505 2.28 1.007 3.334a.38.38 0 01-.123.473L5.871 8.427a10.872 10.872 0 005.703 5.703l1.284-1.795a.385.385 0 01.477-.124c1.054.5 2.178.84 3.333 1.004.116.017.269.035.459.053a.417.417 0 01.374.415H17.5z" fill="#4383FF"/></svg><svg fill="none" viewBox="0 0 10 6" id="blue-select" xmlns="http://www.w3.org/2000/svg"><path d="M5 5.333l-5-5h10l-5 5z" fill="#4383FF"/></svg><svg fill="none" viewBox="0 0 36 40" id="calculate" xmlns="http://www.w3.org/2000/svg"><path d="M2 0h32a2 2 0 012 2v36a2 2 0 01-2 2H2a2 2 0 01-2-2V2a2 2 0 012-2zm2 4v32h28V4H4zm4 4h20v8H8V8zm0 12h4v4H8v-4zm0 8h4v4H8v-4zm8-8h4v4h-4v-4zm0 8h4v4h-4v-4zm8-8h4v12h-4V20z" fill="#4383FF"/></svg><svg fill="none" viewBox="0 0 20 20" id="ch_icon1" xmlns="http://www.w3.org/2000/svg"><path d="M7.656 10.592l5.273 2.11v-4.22l-5.273 2.11zM14.102 8.483V12.7l5.312-2.109-5.312-2.11zM7.07 3.326v6.238l5.86-2.344V5.67L7.07 3.326zM13.515 0L7.656 2.299l5.86 2.343L19.412 2.3 13.515 0zM14.102 5.67v1.55L20 9.564V3.326L14.102 5.67zM18.828 15.273v2.344h-1.171v-2.344h-1.211v2.344h-1.172v-2.344h-1.172v2.344H12.93v-2.344h-1.172v2.344h-1.172v-2.344H9.414v2.344H8.242v-2.344H7.071v2.344H5.899v-2.344h-.344L.83 20H20v-4.727h-1.172zM4.727 1.172V0H0v19.171l4.727-4.726v-.383H2.344v-1.171h2.383v-1.172H2.344v-1.172h2.383V9.375H2.344V8.203h2.383V7.031H2.344V5.86h2.383V4.688H2.344V3.516h2.383V2.344H2.344V1.172h2.383z" fill="#909499"/></svg><svg fill="none" viewBox="0 0 20 20" id="ch_icon2" xmlns="http://www.w3.org/2000/svg"><path d="M1.172 1.172h.985V0H0v2.157h1.172v-.985zM0 3.569h1.172v2.156H0V3.57zM0 7.137h1.172v2.157H0V7.137zM14.275 0h2.156v1.172h-2.156V0zM10.706 0h2.157v1.172h-2.157V0zM7.137 0h2.157v1.172H7.137V0zM3.569 0h2.156v1.172H3.57V0zM17.843 0v1.172h.985v.985H20V0h-2.157zM18.828 3.569H20v2.156h-1.172V3.57zM18.828 7.137H20v2.157h-1.172V7.137zM18.828 10.706H20v2.157h-1.172v-2.157zM18.828 14.275H20v2.156h-1.172v-2.156zM18.828 18.828h-.985V20H20v-2.157h-1.172v.985zM14.275 18.828h2.156V20h-2.156v-1.172zM10.706 18.828h2.157V20h-2.157v-1.172zM0 10.706h9.294V20H0v-9.294zM14.061 4.529h.582l-3.146 3.145v-.581h-1.172v2.582h2.583V8.503h-.582l3.146-3.146v.582h1.171V3.357h-2.582v1.172z" fill="#909499"/></svg><svg fill="none" viewBox="0 0 20 20" id="ch_icon3" xmlns="http://www.w3.org/2000/svg"><path d="M20 7.72V1.25h-5.883v6.47h2.353v10h-1.176v1.177h3.53v-1.176h-1.177v-10H20zM11.177 13.015v2.94H2.94v-2.94A2.941 2.941 0 000 10.073v7.648h1.176v1.176h1.177v-1.176h9.412v1.176h1.176v-1.176h1.177v-7.648a2.941 2.941 0 00-2.941 2.942z" fill="#909499"/><path d="M10 14.78c.003-1.767-.007-1.791.009-2.033a2.341 2.341 0 00-1.185-.32h-3.53c-.432 0-.837.117-1.185.32.015.242.006.224.009 2.032H10zM5.294 11.25h3.53c.513 0 1.002.11 1.442.309.204-.537.516-1.02.91-1.423V6.544H2.942v3.592c.395.403.707.886.91 1.423.441-.198.93-.309 1.443-.309zm2.353-2.941h1.177v1.176H7.647V8.31zm-2.353 0h1.177v1.176H5.294V8.31z" fill="#909499"/></svg><svg fill="none" viewBox="0 0 20 20" id="ch_icon4" xmlns="http://www.w3.org/2000/svg"><path d="M20 9.317V2.353h-3.03V0H9.09v5.882h7.879V3.53h1.818V8.33L8.485 10.095v2.258H7.273v2.353h3.636v-2.353H9.697v-1.271L20 9.317zM1.212 2.353H0v1.176h1.212v2.353h2.424V0H1.212v2.353zM7.879 6.765V0h-3.03v6.765c0 .812.678 1.47 1.515 1.47.837 0 1.515-.658 1.515-1.47zM7.273 18.235c0 .975.814 1.765 1.818 1.765s1.818-.79 1.818-1.765v-2.353H7.273v2.353z" fill="#909499"/></svg><svg fill="none" viewBox="0 0 20 20" id="ch_icon5" xmlns="http://www.w3.org/2000/svg"><path d="M19.19 0h-2.705v1.172h.81l-1.172 2.344h2.705V2.344h-.81L19.192 0zM14.425 3.516H11.72v1.171h.81l-1.172 2.344h2.706V5.86h-.81l1.172-2.343zM7.223 3.287c-.262.15-.472.229-.778.229-.969 0-1.758-.698-1.758-1.668 0-.305.08-.606.23-.868l.56-.98-1.125.106c-1.813.172-3.18 1.586-3.18 3.41A3.52 3.52 0 004.688 7.03c1.823 0 3.237-1.367 3.409-3.18l.106-1.124-.98.56zM17.07 8.203H9.96a2.93 2.93 0 00-2.929 2.93v2.93H20v-2.93a2.93 2.93 0 00-2.93-2.93z" fill="#909499"/><path d="M1.172 15.234v-1.171h4.687V12.89H1.172V7.03H0V20h1.172v-1.172h17.656V20H20v-4.766H1.172z" fill="#909499"/><path d="M4.102 11.719a1.758 1.758 0 100-3.516 1.758 1.758 0 000 3.516z" fill="#909499"/></svg><svg fill="none" viewBox="0 0 20 20" id="ch_icon6" xmlns="http://www.w3.org/2000/svg"><path d="M17.494 13.455l-.297-1.809a.48.48 0 00-.546-.383c-4.096.58-9.207.58-13.302 0a.48.48 0 00-.546.383c-.1.603-.198 1.206-.297 1.81-.042.249.15.487.43.526.357.05.721.097 1.091.139l-.904 5.67L4.53 20l.915-5.739c.172.015.344.028.518.04v3.763h1.424v-3.678c1.726.08 3.498.08 5.223 0v3.678h1.425v-3.762l.518-.04.915 5.738 1.408-.209-.904-5.67c.37-.042.734-.088 1.091-.14.28-.038.472-.276.43-.526zM13.238.046a112.778 112.778 0 00-6.476 0c-1.8.062-3.15 1.394-2.992 2.905.225 2.337.45 4.66.514 6.987 1.889.256 3.81.386 5.716.386 1.906 0 3.828-.13 5.717-.386.063-2.327.288-4.65.513-6.987.158-1.51-1.193-2.843-2.992-2.905zM6.405 8.46a227.01 227.01 0 00-.214-5.54l1.423-.064c.08 1.662.169 3.624.215 5.573l-1.424.03zm4.307-.017H9.288V2.867h1.424v5.576zm2.883.017l-1.424-.031c.046-1.95.135-3.912.215-5.573l1.423.064c-.08 1.653-.168 3.604-.214 5.54z" fill="#909499"/></svg><svg fill="none" viewBox="0 0 20 20" id="ch_icon7" xmlns="http://www.w3.org/2000/svg"><path d="M7.044 0C3.849 0 1.25 2.443 1.25 5.447V20h2.149V5.447c0-1.89 1.635-3.427 3.645-3.427 1.461 0 2.724.814 3.304 1.984a6.703 6.703 0 012.253-.098C11.892 1.65 9.669 0 7.044 0z" fill="#909499"/><path d="M11.763 5.066c-2.776 0-5.034 2.123-5.034 4.732v.606h10.068v-.606c0-2.61-2.258-4.732-5.034-4.732zM6.595 11.148l-.105.468-1.714 7.653 1.262.25 1.77-7.903.049-.219-1.262-.25zM8.883 11.616l-.03-.003v.003l-.91 8.119 1.283.127.91-8.122-1.253-.124zM12.408 11.879h-1.29v8.12h1.29v-8.12zM14.673 11.616v-.003l-.03.003-1.253.124.91 8.121 1.282-.127-.909-8.118zM17.036 11.616l-.105-.468-1.261.25.049.218 1.77 7.903 1.261-.25-1.714-7.653z" fill="#909499"/></svg><svg fill="none" viewBox="0 0 14 14" id="close" xmlns="http://www.w3.org/2000/svg"><path d="M7 13.667A6.667 6.667 0 117 .334a6.667 6.667 0 010 13.333zm0-7.61L5.115 4.171l-.944.944L6.058 7 4.171 8.885l.944.944L7 7.943l1.886 1.886.943-.944L7.943 7l1.886-1.885-.944-.944L7 6.057z" fill="#C4C8CC"/></svg><svg fill="none" viewBox="0 0 46 53" id="cmap-icon" xmlns="http://www.w3.org/2000/svg"><path fill-rule="evenodd" clip-rule="evenodd" d="M27.233 46.636c.17-.429.545-.74.991-.844C38.41 43.407 46 34.197 46 23.197 46 10.386 35.703 0 23 0S0 10.386 0 23.197c0 10.999 7.59 20.21 17.776 22.595.446.105.82.415.99.844l2.978 5.506c.453 1.144 2.059 1.144 2.512 0l2.977-5.506z" fill="#161718"/><path d="M29.833 29.54a.834.834 0 01-.833.834H17.333a.834.834 0 01-.833-.834v-7.5H14l8.606-7.823a.834.834 0 011.121 0l8.606 7.823h-2.5v7.5zm-6.666-4.166a2.083 2.083 0 100-4.167 2.083 2.083 0 000 4.167z" fill="#fff"/></svg><svg fill="none" viewBox="0 0 48 48" id="conditions-item-1" xmlns="http://www.w3.org/2000/svg"><path d="M47.212 7.473a1.875 1.875 0 00-1.7-.245L25.874 14.03V9c0-1.036-.84-1.875-1.875-1.875h-9.188v-5.25a1.875 1.875 0 10-3.75 0v5.25H1.876C.839 7.125 0 7.965 0 9v37.125C0 47.161.84 48 1.875 48h44.25C47.161 48 48 47.16 48 46.125V9c0-.607-.293-1.176-.788-1.527zM11.063 24v20.25H3.75V10.875h18.375v11.25h-9.188c-1.035 0-1.874.84-1.874 1.875zm14.813 20.25h-3.75v-6.187h3.75v6.187zm7.313 0h-3.563v-8.062c0-1.036-.84-1.875-1.875-1.875h-7.5c-1.036 0-1.875.839-1.875 1.875v8.062h-3.563V25.875h18.376V44.25zm11.062 0h-7.313V24c0-1.036-.839-1.875-1.874-1.875h-9.188v-4.127l18.375-6.364V44.25z" fill="#C4C8CC"/></svg><svg fill="none" viewBox="0 0 48 48" id="conditions-item-2" xmlns="http://www.w3.org/2000/svg"><path d="M46.125 18C47.161 18 48 17.16 48 16.125V9c0-.814-.525-1.535-1.3-1.785L24.575.09a1.876 1.876 0 00-1.15 0L1.3 7.215C.525 7.465 0 8.185 0 9v7.125C0 17.16.84 18 1.875 18h2.813v19.125H1.874C.839 37.125 0 37.965 0 39v7.125C0 47.16.84 48 1.875 48h44.25C47.161 48 48 47.16 48 46.125V39c0-1.036-.84-1.875-1.875-1.875h-2.813V18h2.813zM44.25 40.875v3.375H3.75v-3.375h40.5zm-35.813-3.75V18h3.376v19.125H8.437zm7.126 0V18h3v19.125h-3zm6.75 0V18h3.375v19.125h-3.375zm7.125 0V18h3v19.125h-3zm6.75 0V18h3.374v19.125h-3.374zM3.75 14.25v-3.884L24 3.845l20.25 6.521v3.884H3.75z" fill="#C4C8CC"/><path d="M24 12.28a2.344 2.344 0 100-4.687 2.344 2.344 0 000 4.688z" fill="#C4C8CC"/></svg><svg fill="none" viewBox="0 0 48 34" id="conditions-item-3" xmlns="http://www.w3.org/2000/svg"><path d="M42.375.125H5.625A5.631 5.631 0 000 5.75v22.5a5.631 5.631 0 005.625 5.625h36.75A5.631 5.631 0 0048 28.25V5.75A5.631 5.631 0 0042.375.125zM44.25 28.25a1.877 1.877 0 01-1.875 1.875H5.625A1.877 1.877 0 013.75 28.25V5.75c0-1.034.841-1.875 1.875-1.875h36.75c1.034 0 1.875.841 1.875 1.875v22.5z" fill="#C4C8CC"/><path d="M16.406 6.219H7.97c-1.036 0-1.875.84-1.875 1.875v8.437c0 1.036.84 1.875 1.875 1.875h8.437c1.036 0 1.875-.84 1.875-1.875V8.094c0-1.036-.84-1.875-1.875-1.875zm-1.875 8.437H9.844V9.97h4.687v4.687zM40.031 23.563H26.906a1.875 1.875 0 100 3.75h13.125a1.875 1.875 0 100-3.75z" fill="#C4C8CC"/></svg><svg fill="none" viewBox="0 0 48 48" id="conditions-item-4" xmlns="http://www.w3.org/2000/svg"><path d="M3.897 33.441a.01.01 0 00.003-.001l.002-.001 3.085-1.782a1.875 1.875 0 111.875 3.248l-1.387.8c3.34 4.704 8.6 7.898 14.65 8.458v-1.6a1.875 1.875 0 113.75 0v1.6c9.69-.883 17.405-8.6 18.289-18.288h-1.602a1.875 1.875 0 110-3.75h1.602c-.884-9.69-8.6-17.405-18.289-18.289v1.602a1.875 1.875 0 11-3.75 0V1.874C22.125.839 22.965 0 24 0c13.264 0 24 10.734 24 24 0 13.264-10.734 24-24 24-8.866 0-16.631-4.815-20.787-11.997a1.875 1.875 0 01.684-2.562zM15.656 9.548a1.875 1.875 0 01-2.561-.686l-1.782-3.085a1.874 1.874 0 113.248-1.875l1.781 3.085c.518.897.21 2.043-.686 2.561zM6.987 16.343L3.902 14.56a1.875 1.875 0 011.875-3.247l3.085 1.78a1.875 1.875 0 01-1.875 3.249zM1.875 22.125h3.563a1.875 1.875 0 110 3.75H1.874a1.875 1.875 0 110-3.75z" fill="#C4C8CC"/><path d="M25.875 33.188a1.875 1.875 0 11-3.75 0v-5.959a5.447 5.447 0 01-3.563-5.104A5.444 5.444 0 0124 16.687a5.444 5.444 0 015.438 5.438 5.447 5.447 0 01-3.563 5.104v5.959zM24 20.438a1.69 1.69 0 00-1.688 1.687c0 .93.758 1.688 1.688 1.688a1.69 1.69 0 001.688-1.688A1.69 1.69 0 0024 20.437z" fill="#C4C8CC"/></svg><svg fill="none" viewBox="0 0 57 55" id="des-star" xmlns="http://www.w3.org/2000/svg"><path d="M29.565 46.001a2 2 0 00-1.957 0l-14.032 7.875c-1.489.836-3.273-.458-2.94-2.133l3.136-15.83a2 2 0 00-.603-1.855L1.346 23.096c-1.25-1.159-.57-3.25 1.124-3.452l15.981-1.9a2 2 0 001.58-1.15L26.77 1.948c.714-1.552 2.92-1.552 3.634 0l6.737 14.644a2 2 0 001.581 1.15l15.981 1.9c1.694.202 2.374 2.294 1.124 3.453L44.004 34.058a2 2 0 00-.602 1.856l3.136 15.83c.332 1.674-1.452 2.968-2.94 2.132l-14.033-7.875z" fill="#B0B3B5"/></svg><svg fill="none" viewBox="0 0 16 16" id="disclamer" xmlns="http://www.w3.org/2000/svg"><path d="M8 14.667A6.667 6.667 0 118 1.334a6.667 6.667 0 010 13.333zm-.667-7.334v4h1.334v-4H7.333zm0-2.666V6h1.334V4.667H7.333z" fill="#4383FF"/></svg><svg fill="none" viewBox="0 0 199 47" id="f-logo" xmlns="http://www.w3.org/2000/svg"><path fill-rule="evenodd" clip-rule="evenodd" d="M19.6 0h-4.895c-2.354 0-4.187 0-5.656.117-1.493.118-2.705.361-3.796.9A9.484 9.484 0 001.05 5.099C.493 6.156.242 7.333.12 8.781 0 10.207 0 11.985 0 14.27v11.666h6.414v-7.262h7.84v7.262h6.415V1.037c0-.573-.48-1.037-1.07-1.037zM8.164 6.564c.281-.14.653-.235 1.3-.286.66-.052 1.506-.053 2.722-.053h2.066v6.225h-7.84v-.623c0-1.18.001-2.001.055-2.641.053-.628.152-.989.295-1.262a3.161 3.161 0 011.402-1.36zM161.677 0h4.895c.591 0 1.069.464 1.069 1.037v24.899h-6.415v-7.262h-7.84v7.262h-6.413V14.27c0-2.284 0-4.063.12-5.489.122-1.448.373-2.625.928-3.683a9.49 9.49 0 014.205-4.08c1.091-.54 2.303-.783 3.795-.901C157.491 0 159.323 0 161.677 0zm-5.24 6.278c-.647.051-1.018.147-1.3.286a3.16 3.16 0 00-1.401 1.36c-.144.273-.242.634-.295 1.262-.054.64-.055 1.462-.055 2.641v.623h7.84V6.225h-2.067c-1.215 0-2.062 0-2.722.053z" fill="#fff"/><path d="M184.294 0h-4.895c-.59 0-1.069.465-1.069 1.038v24.899h6.415V6.224h2.067c1.215 0 2.062 0 2.722.053.647.051 1.018.147 1.3.286a3.16 3.16 0 011.401 1.36c.144.273.242.634.295 1.262.054.64.055 1.462.055 2.641v14.11h6.414V14.27c0-2.283 0-4.062-.121-5.488-.121-1.448-.372-2.625-.928-3.683a9.484 9.484 0 00-4.205-4.08c-1.09-.54-2.303-.783-3.795-.902-1.47-.116-3.302-.116-5.656-.116z" fill="#fff"/><path fill-rule="evenodd" clip-rule="evenodd" d="M136.839 8.646c0-4.775-3.988-8.645-8.908-8.645H117.24c-.59 0-1.069.464-1.069 1.037v24.899h6.414V17.29h2.067c1.215 0 2.062 0 2.721.053.647.051 1.019.147 1.301.286a3.16 3.16 0 011.401 1.36c.144.274.242.634.295 1.262.054.64.055 1.462.055 2.641v3.043h6.414v-4.639c.001-1.09.001-1.773-.119-2.416a7.218 7.218 0 00-2.833-4.482c1.788-1.064 2.952-2.977 2.952-5.118v-.635zm-8.685-2.421c.486 0 .982.165 1.28.549a3.038 3.038 0 010 3.743c-.298.384-.794.55-1.28.55h-5.569V6.224h5.569z" fill="#fff"/><path d="M105.474 25.936H89.287c-.61 0-1.103-.47-1.103-1.051V14.463c0-2.315 0-4.118.124-5.563.125-1.468.385-2.66.958-3.733.953-1.78 2.472-3.228 4.341-4.136 1.126-.546 2.378-.793 3.918-.913C99.043 0 100.934 0 103.364 0h2.11v7.01h-5.887c-1.44 0-1.943.009-2.328.107-1.143.292-2.035 1.142-2.341 2.23-.071.253-.098.558-.108 1.167h7.206v5.048l-.001.56h-7.21v3.505h10.669v6.31zM45.612 25.936V11.827c0-1.18 0-2.001-.054-2.641-.053-.628-.152-.989-.295-1.262a3.161 3.161 0 00-1.402-1.36c-.281-.14-.653-.235-1.3-.286-.66-.052-1.507-.053-2.722-.053h-2.066v19.711h-6.416V1.039c0-.573.48-1.037 1.07-1.037h4.894c2.354 0 4.187 0 5.656.116 1.492.119 2.705.362 3.796.902a9.484 9.484 0 014.204 4.08c.556 1.058.807 2.235.929 3.683.12 1.426.12 3.204.12 5.488v11.667h-6.414zM57.728 0a9.999 9.999 0 011.069 1.746c.038.078.073.156.145.313l10.674 23.254.228.623h1.426l.228-.623L82.172 2.059a9.998 9.998 0 011.01-1.78c.05-.07.101-.14.203-.277V0h-7.567L70.557 12.1 65.295 0h-7.567z" fill="#fff"/><g opacity=".4" fill="#fff"><path d="M0 46.542h2.12v-3.578h1.548l1.9 3.578H7.91L5.78 42.62c1.14-.493 1.773-1.493 1.773-2.873 0-2.006-1.318-3.297-3.595-3.297H0v10.093zm2.12-5.293v-3.056h1.43c1.225 0 1.817.548 1.817 1.553 0 1-.592 1.503-1.807 1.503H2.12zM11.786 46.542h6.778v-1.76h-4.657v-2.41h4.29v-1.759h-4.29v-2.405h4.638v-1.76h-6.759v10.094zM24.695 46.542l.745-2.301h3.619l.744 2.301h2.272L28.618 36.45h-2.733l-3.462 10.093h2.272zm1.283-3.967l1.234-3.82h.079l1.234 3.82h-2.547zM36.019 46.542h6.42v-1.76h-4.3V36.45h-2.12v10.093zM52.507 46.542h6.778v-1.76h-4.657v-2.41h4.29v-1.759h-4.29v-2.405h4.638v-1.76h-6.759v10.094zM69.129 39.352h2.032c-.03-1.8-1.499-3.041-3.732-3.041-2.199 0-3.81 1.222-3.8 3.056-.005 1.488 1.038 2.34 2.733 2.75l1.092.276c1.092.266 1.7.581 1.704 1.261-.005.74-.7 1.242-1.778 1.242-1.102 0-1.895-.512-1.964-1.523h-2.051c.053 2.184 1.606 3.312 4.04 3.312 2.448 0 3.888-1.178 3.893-3.026-.005-1.68-1.263-2.572-3.007-2.967l-.901-.217c-.872-.202-1.601-.527-1.587-1.252 0-.65.573-1.128 1.612-1.128 1.013 0 1.635.463 1.714 1.257zM75.079 38.208h3.07v8.334h2.096v-8.334h3.07v-1.76H75.08v1.76zM87.898 46.542l.745-2.301h3.619l.744 2.301h2.272L91.821 36.45h-2.733l-3.462 10.093h2.272zm1.283-3.967l1.234-3.82h.079l1.234 3.82H89.18zM97.6 38.208h3.071v8.334h2.096v-8.334h3.071v-1.76h-8.237v1.76zM109.931 46.542h6.777v-1.76h-4.657v-2.41h4.29v-1.759h-4.29v-2.405h4.638v-1.76h-6.758v10.094zM128.767 46.542l.745-2.301h3.619l.744 2.301h2.273L132.69 36.45h-2.733l-3.462 10.093h2.272zm1.284-3.967l1.234-3.82h.078l1.234 3.82h-2.546zM146.27 39.712h2.155c-.274-1.997-2.023-3.401-4.29-3.401-2.65 0-4.692 1.922-4.692 5.194 0 3.194 1.91 5.175 4.736 5.175 2.532 0 4.339-1.611 4.339-4.268v-1.271h-4.197v1.606h2.155c-.03 1.252-.877 2.046-2.287 2.046-1.592 0-2.596-1.198-2.596-3.307 0-2.1 1.043-3.288 2.576-3.288 1.092 0 1.832.567 2.101 1.514zM152.847 46.542h6.778v-1.76h-4.658v-2.41h4.29v-1.759h-4.29v-2.405h4.638v-1.76h-6.758v10.094zM172.416 36.449h-2.111v6.348h-.088l-4.329-6.348h-1.861v10.093h2.121V40.19h.073l4.364 6.352h1.831V36.45zM185.754 39.983c-.279-2.332-2.033-3.672-4.354-3.672-2.649 0-4.672 1.883-4.672 5.185 0 3.292 1.988 5.184 4.672 5.184 2.571 0 4.124-1.72 4.354-3.578l-2.145-.01c-.201 1.08-1.043 1.7-2.175 1.7-1.523 0-2.556-1.138-2.556-3.296 0-2.1 1.019-3.298 2.571-3.298 1.161 0 1.998.676 2.16 1.785h2.145zM189.423 36.449l3.658 6.525v3.568h2.106v-3.568l3.658-6.525h-2.375l-2.287 4.347h-.098l-2.287-4.347h-2.375z"/></g></svg><svg fill="none" viewBox="0 0 20 19" id="favorites" xmlns="http://www.w3.org/2000/svg"><path d="M14.5 0C17.538 0 20 2.5 20 6c0 7-7.5 11-10 12.5C7.5 17 0 13 0 6c0-3.5 2.5-6 5.5-6C7.36 0 9 1 10 2c1-1 2.64-2 4.5-2zm-3.566 15.604a26.953 26.953 0 002.42-1.701C16.335 11.533 18 8.943 18 6c0-2.36-1.537-4-3.5-4-1.076 0-2.24.57-3.086 1.414L10 4.828 8.586 3.414C7.74 2.57 6.576 2 5.5 2 3.56 2 2 3.656 2 6c0 2.944 1.666 5.533 4.645 7.903.745.592 1.54 1.145 2.421 1.7.299.189.595.37.934.572.339-.202.635-.383.934-.571z" fill="#AAAEB3"/></svg><svg fill="none" viewBox="0 0 18 13" id="filter-trg" xmlns="http://www.w3.org/2000/svg"><path d="M7.685 1.899c.442-.638.663-.957.939-1.07a1 1 0 01.752 0c.276.113.497.432.94 1.07l5.945 8.583c.563.813.845 1.22.829 1.558a1 1 0 01-.392.747c-.268.206-.763.206-1.753.206H3.055c-.99 0-1.484 0-1.753-.206a1 1 0 01-.392-.747c-.016-.338.266-.745.83-1.558l5.945-8.583z" fill="#fff"/></svg><svg fill="none" viewBox="0 0 20 20" id="imap-btn" xmlns="http://www.w3.org/2000/svg"><path d="M9.023 10l4.125 4.125-1.178 1.178L6.666 10l5.304-5.303 1.178 1.178L9.023 10z" fill="#fff"/></svg><svg fill="none" viewBox="0 0 24 24" id="imap-icon" xmlns="http://www.w3.org/2000/svg"><g filter="url(#bcfilter0_d)"><circle cx="12" cy="8" r="8" fill="#4383FF"/><circle cx="12" cy="8" r="7" stroke="#fff" stroke-width="2"/></g><defs><filter id="bcfilter0_d" x="0" y="0" width="24" height="24" filterUnits="userSpaceOnUse" color-interpolation-filters="sRGB"><feFlood flood-opacity="0" result="BackgroundImageFix"/><feColorMatrix in="SourceAlpha" values="0 0 0 0 0 0 0 0 0 0 0 0 0 0 0 0 0 0 127 0"/><feOffset dy="4"/><feGaussianBlur stdDeviation="2"/><feColorMatrix values="0 0 0 0 0 0 0 0 0 0 0 0 0 0 0 0 0 0 0.25 0"/><feBlend in2="BackgroundImageFix" result="effect1_dropShadow"/><feBlend in="SourceGraphic" in2="effect1_dropShadow" result="shape"/></filter></defs></svg><svg fill="none" viewBox="0 0 10 6" id="lang" xmlns="http://www.w3.org/2000/svg"><path d="M5 5.333l-5-5h10l-5 5z" fill="#161718"/></svg><svg fill="none" viewBox="0 0 24 24" id="link" xmlns="http://www.w3.org/2000/svg"><path d="M13 14h-2a8.999 8.999 0 00-7.968 4.81C3.011 18.54 3 18.27 3 18 3 12.477 7.477 8 13 8V3l10 8-10 8v-5z" fill="#4383FF"/></svg><svg fill="none" viewBox="0 0 12 12" id="location" xmlns="http://www.w3.org/2000/svg"><path d="M11.6.016L.209 3.804a.303.303 0 00-.017.568l5.29 2.111 2.681 5.35a.303.303 0 00.563-.052L11.988.385a.302.302 0 00-.387-.37z" fill="#909499"/></svg><svg fill="none" viewBox="0 0 116 27" id="logo" xmlns="http://www.w3.org/2000/svg"><path d="M114 15h-1.5l-1-11-3-1h-2v12H104V1h2l3.5-.5 3.5 1 1 2V15z" fill="#161718"/><path fill-rule="evenodd" clip-rule="evenodd" d="M106.585 0h-2.831a.61.61 0 00-.619.6V15h1.237V1.2h2.185c1.395 0 2.404 0 3.198.064.787.062 1.307.183 1.734.394a4.265 4.265 0 011.892 1.836c.217.414.342.92.406 1.683.065.77.065 1.75.065 3.103V15h1.237V8.253c0-1.32 0-2.35-.07-3.174-.07-.838-.215-1.518-.537-2.13a5.481 5.481 0 00-2.431-2.36c-.631-.312-1.332-.453-2.195-.521-.85-.068-1.91-.068-3.271-.068z" fill="#161718"/><path fill-rule="evenodd" clip-rule="evenodd" d="M108.067 2.4h-1.84a.61.61 0 00-.618.6v12h1.237V3.6h1.195c.703 0 1.193 0 1.574.03.374.03.589.086.752.166.349.173.633.448.81.787.083.158.14.367.171.73.031.37.032.845.032 1.527V15h1.236V6.814c0-.65 0-1.174-.036-1.6-.036-.436-.114-.82-.301-1.176a3.044 3.044 0 00-1.351-1.31c-.366-.182-.762-.257-1.212-.293-.438-.035-.979-.035-1.649-.035zM93.504 0h2.831a.61.61 0 01.618.6V15h-1.236V1.2h-2.185c-1.395 0-2.404 0-3.198.063-.787.063-1.307.183-1.734.395a4.266 4.266 0 00-1.892 1.835c-.218.415-.342.92-.406 1.683-.065.77-.065 1.75-.065 3.104V15H85V8.253c0-1.321 0-2.35.07-3.175.07-.837.215-1.518.537-2.13a5.485 5.485 0 012.431-2.36c.631-.311 1.332-.452 2.195-.52C91.083 0 92.143 0 93.504 0z" fill="#161718"/><path fill-rule="evenodd" clip-rule="evenodd" d="M88 15h-2.5V5.5l1-2 1-2 3.5-1 3.5.5h2v14H94v-4.5l-3-.5-3 .5V15zm0-7.5l.5-1.5V4.5l1-1h1L92 3l1.5.5V8H91l-1.556-.019L88 7.5z" fill="#161718"/><path fill-rule="evenodd" clip-rule="evenodd" d="M92.022 2.4h1.84a.61.61 0 01.618.6v4.8a.61.61 0 01-.618.6H88.09a.61.61 0 01-.618-.6v-.986c0-.65 0-1.174.035-1.6.037-.436.115-.82.302-1.176a3.047 3.047 0 011.35-1.31c.367-.182.763-.257 1.213-.293.438-.035.978-.035 1.648-.035zm-1.548 1.23c-.374.03-.59.086-.752.166a1.828 1.828 0 00-.81.787c-.084.158-.14.367-.171.73-.031.37-.032.845-.032 1.527v.36h4.534V3.6h-1.195c-.703 0-1.193 0-1.574.03zM87.473 10.2c0-.332.276-.6.618-.6h5.77a.61.61 0 01.619.6V15h-1.237v-4.2H88.71V15h-1.236v-4.8zM79.14 5c0-2.761-2.307-5-5.153-5h-6.182a.61.61 0 00-.619.6V15h1.237V1.2h5.564c2.163 0 3.916 1.702 3.916 3.8v.367c0 1.111-.827 2.059-1.956 2.242a.21.21 0 00-.21.21v.241c0 .407.22.78.571.986.244.143.387.238.512.342a2.981 2.981 0 011.034 1.745c.047.253.05.534.05 1.246V15h1.236V12.38v-.062c0-.63 0-1.026-.07-1.398a4.173 4.173 0 00-1.638-2.591c1.034-.616 1.708-1.722 1.708-2.96V5z" fill="#161718"/><path fill-rule="evenodd" clip-rule="evenodd" d="M70.5 15h-3L68 .5h3l3.5.5 2.5.5L78.5 5 78 7.5l-1.5 1 2 3V15H76v-3l-1-2-2-1-2.5.5-.5 2 .5 3.5zm5-8.5L76 5V3.5l-1-1h-1l-1.5.5h-2v4.5l3-.5 1.556-.019.444-.481z" fill="#161718"/><path fill-rule="evenodd" clip-rule="evenodd" d="M69.66 3v4c0 .16.064.312.18.424a.628.628 0 00.438.176h4.533a.612.612 0 00.37-.125l.068-.05.036-.036c.255-.247.429-.416.56-.585a2.93 2.93 0 000-3.608c-.131-.169-.305-.338-.56-.585l-.036-.035-.067-.051a.612.612 0 00-.37-.125h-4.534a.628.628 0 00-.438.176.59.59 0 00-.18.424zm4.456.6c.281 0 .569.096.74.318a1.758 1.758 0 010 2.165c-.171.222-.459.317-.74.317h-3.22V3.6h3.22zM69.66 9.4V15h1.236v-5h1.195c.703 0 1.193 0 1.574.03.374.03.59.086.752.166.349.173.633.448.81.787.084.158.14.366.171.73.031.37.032.845.032 1.527V15h1.236v-1.786c0-.65 0-1.175-.035-1.6-.037-.437-.115-.82-.302-1.176a3.047 3.047 0 00-1.35-1.311c-.367-.181-.763-.257-1.213-.292-.438-.035-.978-.035-1.648-.035h-1.84a.628.628 0 00-.438.176.59.59 0 00-.18.424z" fill="#161718"/><path d="M61 3.5v-3h-1.5l-4 .5-2 .5L52 4v2l-.5 8.5H61V12l-6.5.5V9H59V7h-4.5l-.5-.5.5-1.5L56 3.5h5z" fill="#161718"/><path fill-rule="evenodd" clip-rule="evenodd" d="M51 8.364v6.028c0 .336.286.608.638.608H61v-1.216h-8.723V8.392c0-1.372 0-2.365.067-3.146.066-.773.195-1.285.42-1.706a4.368 4.368 0 011.952-1.86c.441-.214.979-.336 1.79-.4.82-.063 1.862-.064 3.303-.064H61V0h-1.22c-1.406 0-2.5 0-3.377.068-.891.07-1.615.212-2.266.529a5.617 5.617 0 00-2.51 2.391c-.333.62-.483 1.31-.555 2.16C51 5.982 51 7.024 51 8.363z" fill="#161718"/><path fill-rule="evenodd" clip-rule="evenodd" d="M53.553 8.716v3.243c0 .161.067.316.187.43.12.114.282.178.451.178h6.808v-1.216h-6.17V9.324H59V8.108h-4.808a.655.655 0 00-.451.178.594.594 0 00-.187.43zM54.833 6.08c.005-.352.02-.528.062-.674a1.872 1.872 0 011.354-1.29c.223-.057.514-.062 1.346-.062H61V2.838H57.497c-.696 0-1.171 0-1.579.103-1.101.281-1.961 1.101-2.257 2.15-.109.388-.108.84-.108 1.504v.702H59V6.081h-4.167z" fill="#161718"/><path d="M29 15h-1.5l-1-11-3-1h-2v12H19V1h2l3.5-.5 3.5 1 1 2V15z" fill="#161718"/><path fill-rule="evenodd" clip-rule="evenodd" d="M21.585 0h-2.831a.61.61 0 00-.619.6V15h1.237V1.2h2.185c1.395 0 2.404 0 3.198.064.787.062 1.307.183 1.734.394a4.266 4.266 0 011.892 1.836c.217.414.342.92.406 1.683.065.77.065 1.75.065 3.103V15h1.237V8.253c0-1.32 0-2.35-.07-3.174-.07-.838-.215-1.518-.537-2.13a5.485 5.485 0 00-2.431-2.36C26.42.277 25.719.136 24.856.068 24.006 0 22.946 0 21.585 0z" fill="#161718"/><path fill-rule="evenodd" clip-rule="evenodd" d="M23.067 2.4h-1.84a.61.61 0 00-.618.6v12h1.237V3.6h1.195c.703 0 1.193 0 1.574.03.374.03.59.086.752.166.349.173.633.448.81.787.084.158.14.367.171.73.031.37.032.845.032 1.527V15h1.236V6.814c0-.65 0-1.174-.035-1.6-.037-.436-.115-.82-.302-1.176a3.047 3.047 0 00-1.35-1.31c-.367-.182-.763-.257-1.213-.293-.438-.035-.979-.035-1.649-.035zM8.504 0h2.831a.61.61 0 01.618.6V15h-1.236V1.2H8.532c-1.395 0-2.404 0-3.198.063-.787.063-1.307.183-1.734.395a4.266 4.266 0 00-1.892 1.835c-.217.415-.342.92-.406 1.683-.065.77-.065 1.75-.065 3.104V15H0V8.253c0-1.321 0-2.35.07-3.175.07-.837.215-1.518.536-2.13A5.485 5.485 0 013.038.588C3.67.278 4.37.137 5.233.069 6.083 0 7.143 0 8.504 0z" fill="#161718"/><path fill-rule="evenodd" clip-rule="evenodd" d="M3 15H.5V5.5l1-2 1-2L6 .5l3.5.5h2v14H9v-4.5L6 10l-3 .5V15zm0-7.5L3.5 6V4.5l1-1h1L7 3l1.5.5V8H6l-1.556-.019L3 7.5z" fill="#161718"/><path fill-rule="evenodd" clip-rule="evenodd" d="M7.021 2.4h1.84a.61.61 0 01.619.6v4.8a.61.61 0 01-.618.6H3.09a.61.61 0 01-.618-.6v-.986c0-.65 0-1.174.035-1.6.037-.436.115-.82.302-1.176a3.047 3.047 0 011.35-1.31c.367-.182.763-.257 1.213-.293.438-.035.978-.035 1.648-.035zM5.474 3.63c-.374.03-.59.086-.752.166a1.828 1.828 0 00-.81.787c-.084.158-.14.367-.171.73-.031.37-.032.845-.032 1.527v.36h4.534V3.6H7.048c-.703 0-1.193 0-1.574.03zM2.473 10.2c0-.332.276-.6.618-.6h5.77a.61.61 0 01.619.6V15H8.243v-4.2H3.71V15H2.473v-4.8z" fill="#161718"/><path d="M34 0h3l4 8.5L44.5 0h3L41 14.5 34 0z" fill="#161718"/><path fill-rule="evenodd" clip-rule="evenodd" d="M40.806 15h-.412l-.132-.36-6.173-13.45A6.753 6.753 0 0033.387 0h1.5l5.92 12.895L46.724 0h1.5c-.273.372-.509.77-.701 1.19L41.35 14.64l-.133.36h-.412z" fill="#161718"/><path fill-rule="evenodd" clip-rule="evenodd" d="M40.806 9.167a.595.595 0 01-.54-.372L36.684.417 36.478 0h1.285l3.043 6.997L43.849 0h1.285l-.206.557-3.583 8.238a.595.595 0 01-.54.372z" fill="#161718"/><path d="M0 26.917h1.226v-2.069h.895l1.1 2.07h1.353l-1.232-2.27c.66-.285 1.025-.863 1.025-1.661 0-1.16-.761-1.907-2.079-1.907H0v5.837zm1.226-3.06v-1.768h.827c.708 0 1.051.316 1.051.898 0 .578-.343.87-1.045.87h-.833zM6.816 26.917h3.92V25.9H8.043v-1.394h2.481v-1.018H8.043v-1.39h2.682V21.08H6.816v5.837zM14.282 26.917l.43-1.33h2.094l.43 1.33h1.314l-2-5.837h-1.58l-2.002 5.837h1.314zm.742-2.294l.714-2.21h.045l.714 2.21h-1.473zM20.831 26.917h3.713V25.9h-2.486v-4.82H20.83v5.837zM30.367 26.917h3.92V25.9h-2.694v-1.394h2.482v-1.018h-2.482v-1.39h2.683V21.08h-3.909v5.837zM39.98 22.759h1.175c-.017-1.04-.867-1.759-2.158-1.759-1.272 0-2.203.707-2.198 1.767-.003.861.6 1.354 1.58 1.59l.632.16c.632.154.983.337.986.73-.003.428-.405.718-1.028.718-.638 0-1.096-.296-1.136-.88h-1.187c.031 1.262.93 1.915 2.337 1.915 1.416 0 2.249-.681 2.252-1.75-.003-.972-.731-1.488-1.74-1.716l-.52-.125c-.505-.117-.927-.305-.918-.724 0-.377.331-.653.931-.653.587 0 .947.268.992.727zM43.42 22.097h1.777v4.82h1.212v-4.82h1.776V21.08H43.42v1.017zM50.835 26.917l.43-1.33h2.094l.43 1.33h1.314l-2-5.837h-1.58l-2.002 5.837h1.314zm.742-2.294l.714-2.21h.045l.714 2.21h-1.473zM56.446 22.097h1.776v4.82h1.212v-4.82h1.776V21.08h-4.764v1.017zM63.577 26.917h3.92V25.9h-2.693v-1.394h2.48v-1.018h-2.48v-1.39h2.682V21.08h-3.909v5.837zM74.471 26.917l.43-1.33h2.094l.43 1.33h1.315l-2-5.837h-1.58l-2.003 5.837h1.314zm.742-2.294l.714-2.21h.045l.714 2.21h-1.473zM84.594 22.967h1.246C85.681 21.812 84.67 21 83.359 21c-1.532 0-2.713 1.112-2.713 3.004 0 1.847 1.104 2.993 2.738 2.993 1.465 0 2.51-.932 2.51-2.468v-.736h-2.428v.93h1.247c-.017.724-.507 1.183-1.323 1.183-.92 0-1.501-.693-1.501-1.913 0-1.214.603-1.901 1.49-1.901.631 0 1.059.328 1.215.875zM88.397 26.917h3.92V25.9h-2.693v-1.394h2.48v-1.018h-2.48v-1.39h2.682V21.08h-3.909v5.837zM99.715 21.08h-1.22v3.671h-.052L95.94 21.08h-1.077v5.837h1.227v-3.674h.042l2.524 3.674h1.06V21.08zM107.429 23.123c-.162-1.348-1.176-2.123-2.518-2.123-1.532 0-2.702 1.089-2.702 2.999 0 1.904 1.15 2.998 2.702 2.998 1.487 0 2.385-.995 2.518-2.07l-1.241-.005c-.116.624-.603.983-1.257.983-.881 0-1.479-.658-1.479-1.906 0-1.215.589-1.907 1.487-1.907.671 0 1.156.39 1.249 1.032h1.241zM109.551 21.08l2.115 3.774v2.063h1.218v-2.063L115 21.08h-1.374l-1.322 2.514h-.057l-1.323-2.514h-1.373z" fill="#AAAEB3"/></svg><svg fill="none" viewBox="0 0 17 8" id="more-arrow" xmlns="http://www.w3.org/2000/svg"><path d="M16.354 4.354a.5.5 0 000-.708L13.172.464a.5.5 0 10-.708.708L15.293 4l-2.829 2.828a.5.5 0 10.708.708l3.182-3.182zM0 4.5h16v-1H0v1z" fill="#4383FF"/></svg><svg fill="none" viewBox="0 0 24 24" id="next-btn" xmlns="http://www.w3.org/2000/svg"><path d="M16.172 11l-5.364-5.364 1.414-1.414L20 12l-7.778 7.778-1.414-1.414L16.172 13H4v-2h12.172z" fill="#fff"/></svg><svg fill="none" viewBox="0 0 24 24" id="pdf" xmlns="http://www.w3.org/2000/svg"><path d="M16 2l5 5v14.008a.993.993 0 01-.993.992H3.993A1 1 0 013 21.008V2.992C3 2.444 3.445 2 3.993 2H16zm-4 14a4 4 0 100-8H8v8h4zm-2-6h2a2 2 0 010 4h-2v-4z" fill="#4383FF"/></svg><svg fill="none" viewBox="0 0 16 16" id="phone" xmlns="http://www.w3.org/2000/svg"><path d="M15.5 11.683v2.947a.833.833 0 01-.775.832c-.364.025-.662.038-.892.038C6.47 15.5.5 9.53.5 2.167c0-.23.012-.528.038-.892A.833.833 0 011.37.5h2.947a.417.417 0 01.415.375c.019.192.036.344.053.46.166 1.156.505 2.28 1.007 3.334a.38.38 0 01-.123.473L3.871 6.427a10.872 10.872 0 005.703 5.703l1.284-1.795a.385.385 0 01.477-.124c1.054.5 2.178.84 3.333 1.004.116.017.269.035.459.053a.417.417 0 01.374.415H15.5z" fill="#fff"/></svg><svg fill="none" viewBox="0 0 24 24" id="prev-btn" xmlns="http://www.w3.org/2000/svg"><path d="M7.828 11l5.364-5.364-1.414-1.414L4 12l7.778 7.778 1.414-1.414L7.828 13H20v-2H7.828z" fill="#fff"/></svg><svg fill="none" viewBox="0 0 24 24" id="sale" xmlns="http://www.w3.org/2000/svg"><path d="M15 2a4 4 0 013.464 6.001L23 8v2h-2v10a1 1 0 01-1 1H4a1 1 0 01-1-1V10H1V8l4.536.001A4 4 0 0112 3.355 3.983 3.983 0 0115 2zm-2 8h-2v10h2V10zM9 4a2 2 0 00-.15 3.995L9 8h2V6a2 2 0 00-1.697-1.977l-.154-.018L9 4zm6 0a2 2 0 00-1.995 1.85L13 6v2h2a2 2 0 001.995-1.85L17 6a2 2 0 00-2-2z" fill="#FFBD77"/></svg><svg fill="none" viewBox="0 0 24 24" id="sale-close" xmlns="http://www.w3.org/2000/svg"><path opacity=".3" d="M12 10.586l4.95-4.95 1.414 1.414-4.95 4.95 4.95 4.95-1.414 1.414-4.95-4.95-4.95 4.95-1.414-1.414 4.95-4.95-4.95-4.95L7.05 5.636l4.95 4.95z" fill="#fff"/></svg><svg fill="none" viewBox="0 0 24 24" id="save" xmlns="http://www.w3.org/2000/svg"><path d="M16.5 3C19.538 3 22 5.5 22 9c0 7-7.5 11-10 12.5C9.5 20 2 16 2 9c0-3.5 2.5-6 5.5-6C9.36 3 11 4 12 5c1-1 2.64-2 4.5-2z" fill="#FF2F2B"/></svg><svg fill="none" viewBox="0 0 24 24" id="scroll-top" xmlns="http://www.w3.org/2000/svg"><path d="M12 10.828l4.95 4.95 1.414-1.414L12 8l-6.364 6.364 1.414 1.414 4.95-4.95z" fill="#161718"/></svg><svg fill="none" viewBox="0 0 20 20" id="search" xmlns="http://www.w3.org/2000/svg"><path d="M15.026 13.848l3.569 3.568-1.18 1.18-3.568-3.57a7.466 7.466 0 01-4.68 1.64c-4.14 0-7.5-3.36-7.5-7.5 0-4.14 3.36-7.5 7.5-7.5 4.14 0 7.5 3.36 7.5 7.5a7.467 7.467 0 01-1.641 4.682zm-1.672-.619A5.814 5.814 0 0015 9.167a5.832 5.832 0 00-5.834-5.834 5.831 5.831 0 00-5.833 5.834A5.832 5.832 0 009.166 15a5.814 5.814 0 004.063-1.646l.125-.125z" fill="#909499"/></svg><svg fill="none" viewBox="0 0 10 6" id="select_arrow" xmlns="http://www.w3.org/2000/svg"><path d="M5 5.333l-5-5h10l-5 5z" fill="#C4C8CC"/></svg><svg fill="none" viewBox="0 0 16 16" id="shower" xmlns="http://www.w3.org/2000/svg"><path d="M5.635 0C3.079 0 1 1.955 1 4.357V16h1.72V4.357c0-1.511 1.307-2.74 2.915-2.74 1.17 0 2.18.65 2.644 1.586a5.363 5.363 0 011.802-.078C9.514 1.32 7.735 0 5.635 0z" fill="var(--actual-card__ptags)"/><path d="M9.41 4.053c-2.22 0-4.026 1.698-4.026 3.785v.485h8.054v-.485c0-2.087-1.807-3.785-4.027-3.785zM5.275 8.918l-.084.375-1.37 6.122 1.009.2 1.416-6.322.039-.175-1.01-.2zM7.107 9.293l-.024-.002v.002l-.728 6.495 1.026.101.728-6.497-1.002-.1zM9.926 9.503H8.895V16h1.031V9.503zM11.738 9.293V9.29l-.024.002-1.002.1.728 6.496 1.025-.101-.727-6.495zM13.629 9.293l-.085-.375-1.009.2.04.175 1.415 6.322 1.01-.2-1.371-6.122z" fill="var(--actual-card__ptags)"/></svg><svg fill="none" viewBox="0 0 16 16" id="slide_arrow" xmlns="http://www.w3.org/2000/svg"><path d="M12.172 7L6.808 1.636 8.222.222 16 8l-7.778 7.778-1.414-1.414L12.172 9H0V7h12.172z" fill="#000"/></svg><svg fill="none" viewBox="0 0 48 48" id="social-icon1" xmlns="http://www.w3.org/2000/svg"><rect width="48" height="48" rx="24" fill="#F2F3F5"/><path d="M26.276 36.75V25.118h3.759l.563-4.533h-4.322v-2.894c0-1.313.35-2.207 2.163-2.207l2.311-.001v-4.055c-.4-.055-1.772-.178-3.368-.178-3.332 0-5.613 2.112-5.613 5.992v3.343H18v4.533h3.769V36.75h4.507z" fill="#161718"/></svg><svg fill="none" viewBox="0 0 48 48" id="social-icon2" xmlns="http://www.w3.org/2000/svg"><rect width="48" height="48" rx="24" fill="#F2F3F5"/><path d="M32.46 19.868v.532c0 5.5-4.189 11.85-11.822 11.85-2.36 0-4.533-.69-6.388-1.86.318.027.663.053.98.053a8.397 8.397 0 005.17-1.78 4.114 4.114 0 01-3.87-2.896c.264.053.503.08.795.08.37 0 .742-.053 1.086-.16a4.133 4.133 0 01-3.34-4.065v-.053a4.074 4.074 0 001.882.531 4.175 4.175 0 01-1.855-3.48c0-.771.212-1.488.557-2.1a11.813 11.813 0 008.561 4.358 3.782 3.782 0 01-.106-.956 4.157 4.157 0 014.161-4.172c1.193 0 2.28.505 3.022 1.302a8.434 8.434 0 002.65-1.01 4.292 4.292 0 01-1.828 2.312 7.945 7.945 0 002.385-.664 7.605 7.605 0 01-2.04 2.178z" fill="#161718"/></svg><svg fill="none" viewBox="0 0 48 48" id="social-icon3" xmlns="http://www.w3.org/2000/svg"><rect width="48" height="48" rx="24" fill="#F2F3F5"/><path fill-rule="evenodd" clip-rule="evenodd" d="M35.45 17.465c.166-.556 0-.965-.795-.965H32.03c-.668 0-.976.353-1.143.743 0 0-1.335 3.254-3.226 5.368-.612.612-.89.807-1.224.807-.167 0-.409-.195-.409-.751v-5.202c0-.668-.194-.965-.75-.965h-4.126c-.417 0-.668.31-.668.604 0 .633.946.778 1.043 2.559v3.866c0 .848-.153 1.002-.487 1.002-.89 0-3.055-3.27-4.339-7.01-.252-.727-.504-1.021-1.175-1.021H12.9c-.75 0-.9.353-.9.743 0 .695.89 4.144 4.145 8.706 2.17 3.115 5.226 4.804 8.008 4.804 1.669 0 1.875-.375 1.875-1.02v-2.355c0-.75.158-.9.687-.9.39 0 1.057.194 2.615 1.696 1.78 1.78 2.073 2.58 3.075 2.58h2.625c.75 0 1.126-.376.91-1.116-.237-.738-1.087-1.808-2.215-3.077-.612-.723-1.53-1.502-1.808-1.891-.39-.501-.279-.724 0-1.168 0 0 3.198-4.507 3.532-6.037z" fill="#161718"/></svg><svg fill="none" viewBox="0 0 48 48" id="social-icon4" xmlns="http://www.w3.org/2000/svg"><rect width="48" height="48" rx="24" fill="#F2F3F5"/><path d="M20.5 24a3.5 3.5 0 117 0 3.5 3.5 0 01-7 0zm-1.891 0a5.392 5.392 0 1010.783 0 5.392 5.392 0 00-10.783 0zm9.737-5.605a1.26 1.26 0 101.26-1.26 1.26 1.26 0 00-1.26 1.26zm-8.588 14.152c-1.023-.047-1.58-.217-1.95-.361-.49-.191-.84-.419-1.207-.786a3.24 3.24 0 01-.786-1.207c-.144-.37-.315-.926-.361-1.95-.051-1.106-.061-1.439-.061-4.243 0-2.804.01-3.136.06-4.243.048-1.024.22-1.58.362-1.95.19-.49.418-.84.786-1.208a3.235 3.235 0 011.207-.785c.37-.144.927-.315 1.95-.361 1.107-.051 1.44-.061 4.242-.061 2.803 0 3.136.01 4.244.06 1.024.047 1.58.219 1.95.362.49.19.84.418 1.208.785.367.367.594.718.785 1.208.144.37.315.926.361 1.95.051 1.107.061 1.44.061 4.243 0 2.804-.01 3.136-.06 4.243-.047 1.024-.219 1.58-.362 1.95-.19.49-.418.84-.785 1.207a3.26 3.26 0 01-1.208.785c-.37.145-.926.315-1.95.362-1.107.05-1.44.06-4.244.06s-3.135-.01-4.242-.06zm-.087-18.983c-1.117.05-1.881.228-2.548.487a5.149 5.149 0 00-1.86 1.211 5.131 5.131 0 00-1.212 1.86c-.26.668-.437 1.431-.487 2.55-.052 1.119-.064 1.476-.064 4.328 0 2.852.012 3.21.064 4.329.05 1.118.228 1.881.487 2.549.268.69.627 1.276 1.211 1.86.585.583 1.17.942 1.86 1.21.669.26 1.431.438 2.55.488 1.12.051 1.477.064 4.328.064 2.852 0 3.21-.012 4.33-.064 1.117-.05 1.88-.228 2.548-.487a5.163 5.163 0 001.86-1.211 5.144 5.144 0 001.212-1.86c.26-.668.437-1.431.487-2.55.051-1.12.063-1.476.063-4.328 0-2.852-.012-3.21-.063-4.329-.05-1.118-.228-1.881-.487-2.549a5.163 5.163 0 00-1.212-1.86 5.137 5.137 0 00-1.859-1.21c-.668-.26-1.432-.438-2.549-.488-1.12-.051-1.477-.064-4.329-.064-2.851 0-3.21.012-4.33.064z" fill="#161718"/></svg><svg fill="none" viewBox="0 0 48 48" id="social-icon5" xmlns="http://www.w3.org/2000/svg"><rect width="48" height="48" rx="24" fill="#F2F3F5"/><path fill-rule="evenodd" clip-rule="evenodd" d="M29.441 32.852c1.258.547 1.73-.599 1.73-.599L34.5 15.645c-.026-1.119-1.547-.442-1.547-.442l-18.636 7.263s-.89.312-.812.859c.079.546.786.807.786.807l4.692 1.561s1.415 4.608 1.704 5.493c.262.86.498.885.498.885.262.104.498-.078.498-.078l3.04-2.733 4.718 3.592zm.812-14.265s.655-.39.63 0c0 0 .104.052-.237.416-.314.313-7.732 6.925-8.728 7.81a.273.273 0 00-.131.234l-.288 2.447c-.053.26-.393.286-.472.052l-1.232-4.009a.382.382 0 01.157-.442l10.301-6.508z" fill="#161718"/></svg><svg fill="none" viewBox="0 0 10 10" id="star" xmlns="http://www.w3.org/2000/svg"><path d="M5.176 8.475a.345.345 0 00-.352 0L2.308 9.951c-.267.157-.587-.086-.527-.4l.562-2.967a.385.385 0 00-.108-.347L.115 4.182c-.224-.217-.102-.61.202-.647l2.865-.356a.36.36 0 00.284-.216L4.674.218a.352.352 0 01.652 0l1.208 2.745c.052.119.16.2.284.216l2.865.356c.304.038.426.43.202.647l-2.12 2.055a.385.385 0 00-.108.347l.562 2.967c.06.314-.26.557-.527.4L5.176 8.475z" fill="#FFB905"/></svg><svg fill="none" viewBox="0 0 18 16" id="transl" xmlns="http://www.w3.org/2000/svg"><path d="M8.958 4.625L7.78 5.803 5.666 3.69v10.977H4V3.69L1.887 5.803.708 4.625 4.833.5l4.125 4.125zm8.333 6.75L13.166 15.5l-4.125-4.125 1.179-1.178 2.114 2.113-.001-10.977H14V12.31l2.113-2.113 1.178 1.178z" fill="var(--svg-filter-color)"/></svg><svg fill="none" viewBox="0 0 8 6" id="triangle" xmlns="http://www.w3.org/2000/svg"><path d="M2.669 1.997c.445-.668.667-1.002.948-1.118a1 1 0 01.766 0c.28.116.503.45.948 1.118l1.01 1.515c.54.809.809 1.213.789 1.548a1 1 0 01-.395.738C6.467 6 5.982 6 5.01 6H2.99c-.972 0-1.457 0-1.725-.202A1 1 0 01.87 5.06c-.02-.335.25-.74.788-1.548l1.01-1.515z" fill="#161718"/></svg><svg fill="none" viewBox="0 0 22 19" id="triangle-object-map" xmlns="http://www.w3.org/2000/svg"><path d="M12.715 17.142c-.777 1.294-2.653 1.294-3.43 0L.817 3.029C.017 1.696.977 0 2.532 0h16.936c1.554 0 2.514 1.696 1.715 3.029l-8.468 14.113z" fill="#13151F"/></svg><svg fill="none" viewBox="0 0 24 24" id="warning" xmlns="http://www.w3.org/2000/svg"><path d="M12.866 3l9.526 16.5a1 1 0 01-.866 1.5H2.474a1 1 0 01-.866-1.5L11.134 3a1 1 0 011.732 0zM11 16v2h2v-2h-2zm0-7v5h2V9h-2z" fill="#D81F1B"/></svg></svg>