<?xml version="1.0" encoding="utf-8"?><svg viewBox="0 0 199 48" xmlns="http://www.w3.org/2000/svg" xmlns:xlink="http://www.w3.org/1999/xlink"><style>:root>svg{display:none}:root>svg:target{display:block}</style><svg fill="none" viewBox="0 0 20 19" id="a-favorite" xmlns="http://www.w3.org/2000/svg"><path d="M14.5 0C17.538 0 20 2.5 20 6c0 7-7.5 11-10 12.5C7.5 17 0 13 0 6c0-3.5 2.5-6 5.5-6C7.36 0 9 1 10 2c1-1 2.64-2 4.5-2zm-3.566 15.604a26.953 26.953 0 002.42-1.701C16.335 11.533 18 8.943 18 6c0-2.36-1.537-4-3.5-4-1.076 0-2.24.57-3.086 1.414L10 4.828 8.586 3.414C7.74 2.57 6.576 2 5.5 2 3.56 2 2 3.656 2 6c0 2.944 1.666 5.533 4.645 7.903.745.592 1.54 1.145 2.421 1.7.299.189.595.37.934.572.339-.202.635-.383.934-.571z" fill="#909499"/></svg><svg fill="none" viewBox="0 0 20 19" id="a-favorite--active" xmlns="http://www.w3.org/2000/svg"><path d="M14.5 0C17.538 0 20 2.5 20 6c0 7-7.5 11-10 12.5C7.5 17 0 13 0 6c0-3.5 2.5-6 5.5-6C7.36 0 9 1 10 2c1-1 2.64-2 4.5-2z" fill="#FF2F2B"/></svg><svg fill="none" viewBox="0 0 16 16" id="armchair" xmlns="http://www.w3.org/2000/svg"><path d="M15.063 6.688h-.938a.937.937 0 00-.938.937v2.813H2.813V7.624a.937.937 0 00-.938-.938H.937a.937.937 0 100 1.875v4.688h1.875l.938-.938h8.5l.938.938h1.874V8.562a.938.938 0 000-1.874z" fill="var(--actual-card__ptags)"/><path d="M3.75 8.563h8.5V9.5h-8.5v-.938zM1.875 4.344V5.75c1.034 0 1.875.84 1.875 1.875h8.5c0-1.034.84-1.875 1.875-1.875V4.344A2.347 2.347 0 0011.781 2H4.22a2.346 2.346 0 00-2.344 2.344zm8-1.132l.663.663-.663.663-.663-.663.663-.663zm0 1.875l.663.663-.663.663-.663-.663.663-.663zM8 3.212l.663.663L8 4.538l-.663-.663L8 3.212zm0 1.875l.663.663L8 6.413l-.663-.663L8 5.087zM6.125 3.212l.663.663-.663.663-.694-.663.694-.663zm0 1.875l.663.663-.663.663-.694-.663.694-.663z" fill="var(--actual-card__ptags)"/></svg><svg fill="none" viewBox="0 0 16 16" id="bed" xmlns="http://www.w3.org/2000/svg"><path d="M15.352 0h-2.165v.938h.648l-.938 1.875h2.165v-.938h-.647L15.351 0zM11.54 2.813H9.375v.937h.648l-.938 1.875h2.165v-.938h-.648l.938-1.875zM5.778 2.63c-.21.12-.377.183-.622.183-.775 0-1.406-.559-1.406-1.334a1.4 1.4 0 01.183-.695L4.381 0l-.9.085C2.032.222.939 1.354.939 2.813A2.816 2.816 0 003.75 5.624c1.459 0 2.59-1.094 2.727-2.544l.085-.9-.784.448zM13.656 6.563H7.97a2.344 2.344 0 00-2.344 2.343v2.344H16V8.906a2.344 2.344 0 00-2.344-2.344z" fill="var(--actual-card__ptags)"/><path d="M.938 12.188v-.938h3.75v-.938H.938V5.625H0V16h.938v-.938h14.124V16H16v-3.813H.937z" fill="var(--actual-card__ptags)"/><path d="M3.281 9.375a1.406 1.406 0 100-2.813 1.406 1.406 0 000 2.813z" fill="var(--actual-card__ptags)"/></svg><svg fill="none" viewBox="0 0 16 16" id="blue-check" xmlns="http://www.w3.org/2000/svg"><path d="M6.667 10.115l6.127-6.129.944.943L6.667 12 2.423 7.757l.942-.942 3.3 3.3z" fill="#4383FF"/></svg><svg fill="none" viewBox="0 0 48 48" id="conditions-item-1" xmlns="http://www.w3.org/2000/svg"><path d="M47.212 7.473a1.875 1.875 0 00-1.7-.245L25.874 14.03V9c0-1.036-.84-1.875-1.875-1.875h-9.188v-5.25a1.875 1.875 0 10-3.75 0v5.25H1.876C.839 7.125 0 7.965 0 9v37.125C0 47.161.84 48 1.875 48h44.25C47.161 48 48 47.16 48 46.125V9c0-.607-.293-1.176-.788-1.527zM11.063 24v20.25H3.75V10.875h18.375v11.25h-9.188c-1.035 0-1.874.84-1.874 1.875zm14.813 20.25h-3.75v-6.187h3.75v6.187zm7.313 0h-3.563v-8.062c0-1.036-.84-1.875-1.875-1.875h-7.5c-1.036 0-1.875.839-1.875 1.875v8.062h-3.563V25.875h18.376V44.25zm11.062 0h-7.313V24c0-1.036-.839-1.875-1.874-1.875h-9.188v-4.127l18.375-6.364V44.25z" fill="#C4C8CC"/></svg><svg fill="none" viewBox="0 0 48 48" id="conditions-item-2" xmlns="http://www.w3.org/2000/svg"><path d="M46.125 18C47.161 18 48 17.16 48 16.125V9c0-.814-.525-1.535-1.3-1.785L24.575.09a1.876 1.876 0 00-1.15 0L1.3 7.215C.525 7.465 0 8.185 0 9v7.125C0 17.16.84 18 1.875 18h2.813v19.125H1.874C.839 37.125 0 37.965 0 39v7.125C0 47.16.84 48 1.875 48h44.25C47.161 48 48 47.16 48 46.125V39c0-1.036-.84-1.875-1.875-1.875h-2.813V18h2.813zM44.25 40.875v3.375H3.75v-3.375h40.5zm-35.813-3.75V18h3.376v19.125H8.437zm7.126 0V18h3v19.125h-3zm6.75 0V18h3.375v19.125h-3.375zm7.125 0V18h3v19.125h-3zm6.75 0V18h3.374v19.125h-3.374zM3.75 14.25v-3.884L24 3.845l20.25 6.521v3.884H3.75z" fill="#C4C8CC"/><path d="M24 12.28a2.344 2.344 0 100-4.687 2.344 2.344 0 000 4.688z" fill="#C4C8CC"/></svg><svg fill="none" viewBox="0 0 48 34" id="conditions-item-3" xmlns="http://www.w3.org/2000/svg"><path d="M42.375.125H5.625A5.631 5.631 0 000 5.75v22.5a5.631 5.631 0 005.625 5.625h36.75A5.631 5.631 0 0048 28.25V5.75A5.631 5.631 0 0042.375.125zM44.25 28.25a1.877 1.877 0 01-1.875 1.875H5.625A1.877 1.877 0 013.75 28.25V5.75c0-1.034.841-1.875 1.875-1.875h36.75c1.034 0 1.875.841 1.875 1.875v22.5z" fill="#C4C8CC"/><path d="M16.406 6.219H7.97c-1.036 0-1.875.84-1.875 1.875v8.437c0 1.036.84 1.875 1.875 1.875h8.437c1.036 0 1.875-.84 1.875-1.875V8.094c0-1.036-.84-1.875-1.875-1.875zm-1.875 8.437H9.844V9.97h4.687v4.687zM40.031 23.563H26.906a1.875 1.875 0 100 3.75h13.125a1.875 1.875 0 100-3.75z" fill="#C4C8CC"/></svg><svg fill="none" viewBox="0 0 48 48" id="conditions-item-4" xmlns="http://www.w3.org/2000/svg"><path d="M3.897 33.441a.01.01 0 00.003-.001l.002-.001 3.085-1.782a1.875 1.875 0 111.875 3.248l-1.387.8c3.34 4.704 8.6 7.898 14.65 8.458v-1.6a1.875 1.875 0 113.75 0v1.6c9.69-.883 17.405-8.6 18.289-18.288h-1.602a1.875 1.875 0 110-3.75h1.602c-.884-9.69-8.6-17.405-18.289-18.289v1.602a1.875 1.875 0 11-3.75 0V1.874C22.125.839 22.965 0 24 0c13.264 0 24 10.734 24 24 0 13.264-10.734 24-24 24-8.866 0-16.631-4.815-20.787-11.997a1.875 1.875 0 01.684-2.562zM15.656 9.548a1.875 1.875 0 01-2.561-.686l-1.782-3.085a1.874 1.874 0 113.248-1.875l1.781 3.085c.518.897.21 2.043-.686 2.561zM6.987 16.343L3.902 14.56a1.875 1.875 0 011.875-3.247l3.085 1.78a1.875 1.875 0 01-1.875 3.249zM1.875 22.125h3.563a1.875 1.875 0 110 3.75H1.874a1.875 1.875 0 110-3.75z" fill="#C4C8CC"/><path d="M25.875 33.188a1.875 1.875 0 11-3.75 0v-5.959a5.447 5.447 0 01-3.563-5.104A5.444 5.444 0 0124 16.687a5.444 5.444 0 015.438 5.438 5.447 5.447 0 01-3.563 5.104v5.959zM24 20.438a1.69 1.69 0 00-1.688 1.687c0 .93.758 1.688 1.688 1.688a1.69 1.69 0 001.688-1.688A1.69 1.69 0 0024 20.437z" fill="#C4C8CC"/></svg><svg fill="none" viewBox="0 0 199 47" id="f-logo" xmlns="http://www.w3.org/2000/svg"><path fill-rule="evenodd" clip-rule="evenodd" d="M19.6 0h-4.895c-2.354 0-4.187 0-5.656.117-1.493.118-2.705.361-3.796.9A9.484 9.484 0 001.05 5.099C.493 6.156.242 7.333.12 8.781 0 10.207 0 11.985 0 14.27v11.666h6.414v-7.262h7.84v7.262h6.415V1.037c0-.573-.48-1.037-1.07-1.037zM8.164 6.564c.281-.14.653-.235 1.3-.286.66-.052 1.506-.053 2.722-.053h2.066v6.225h-7.84v-.623c0-1.18.001-2.001.055-2.641.053-.628.152-.989.295-1.262a3.161 3.161 0 011.402-1.36zM161.677 0h4.895c.591 0 1.069.464 1.069 1.037v24.899h-6.415v-7.262h-7.84v7.262h-6.413V14.27c0-2.284 0-4.063.12-5.489.122-1.448.373-2.625.928-3.683a9.49 9.49 0 014.205-4.08c1.091-.54 2.303-.783 3.795-.901C157.491 0 159.323 0 161.677 0zm-5.24 6.278c-.647.051-1.018.147-1.3.286a3.16 3.16 0 00-1.401 1.36c-.144.273-.242.634-.295 1.262-.054.64-.055 1.462-.055 2.641v.623h7.84V6.225h-2.067c-1.215 0-2.062 0-2.722.053z" fill="#fff"/><path d="M184.294 0h-4.895c-.59 0-1.069.465-1.069 1.038v24.899h6.415V6.224h2.067c1.215 0 2.062 0 2.722.053.647.051 1.018.147 1.3.286a3.16 3.16 0 011.401 1.36c.144.273.242.634.295 1.262.054.64.055 1.462.055 2.641v14.11h6.414V14.27c0-2.283 0-4.062-.121-5.488-.121-1.448-.372-2.625-.928-3.683a9.484 9.484 0 00-4.205-4.08c-1.09-.54-2.303-.783-3.795-.902-1.47-.116-3.302-.116-5.656-.116z" fill="#fff"/><path fill-rule="evenodd" clip-rule="evenodd" d="M136.839 8.646c0-4.775-3.988-8.645-8.908-8.645H117.24c-.59 0-1.069.464-1.069 1.037v24.899h6.414V17.29h2.067c1.215 0 2.062 0 2.721.053.647.051 1.019.147 1.301.286a3.16 3.16 0 011.401 1.36c.144.274.242.634.295 1.262.054.64.055 1.462.055 2.641v3.043h6.414v-4.639c.001-1.09.001-1.773-.119-2.416a7.218 7.218 0 00-2.833-4.482c1.788-1.064 2.952-2.977 2.952-5.118v-.635zm-8.685-2.421c.486 0 .982.165 1.28.549a3.038 3.038 0 010 3.743c-.298.384-.794.55-1.28.55h-5.569V6.224h5.569z" fill="#fff"/><path d="M105.474 25.936H89.287c-.61 0-1.103-.47-1.103-1.051V14.463c0-2.315 0-4.118.124-5.563.125-1.468.385-2.66.958-3.733.953-1.78 2.472-3.228 4.341-4.136 1.126-.546 2.378-.793 3.918-.913C99.043 0 100.934 0 103.364 0h2.11v7.01h-5.887c-1.44 0-1.943.009-2.328.107-1.143.292-2.035 1.142-2.341 2.23-.071.253-.098.558-.108 1.167h7.206v5.048l-.001.56h-7.21v3.505h10.669v6.31zM45.612 25.936V11.827c0-1.18 0-2.001-.054-2.641-.053-.628-.152-.989-.295-1.262a3.161 3.161 0 00-1.402-1.36c-.281-.14-.653-.235-1.3-.286-.66-.052-1.507-.053-2.722-.053h-2.066v19.711h-6.416V1.039c0-.573.48-1.037 1.07-1.037h4.894c2.354 0 4.187 0 5.656.116 1.492.119 2.705.362 3.796.902a9.484 9.484 0 014.204 4.08c.556 1.058.807 2.235.929 3.683.12 1.426.12 3.204.12 5.488v11.667h-6.414zM57.728 0a9.999 9.999 0 011.069 1.746c.038.078.073.156.145.313l10.674 23.254.228.623h1.426l.228-.623L82.172 2.059a9.998 9.998 0 011.01-1.78c.05-.07.101-.14.203-.277V0h-7.567L70.557 12.1 65.295 0h-7.567z" fill="#fff"/><g opacity=".4" fill="#fff"><path d="M0 46.542h2.12v-3.578h1.548l1.9 3.578H7.91L5.78 42.62c1.14-.493 1.773-1.493 1.773-2.873 0-2.006-1.318-3.297-3.595-3.297H0v10.093zm2.12-5.293v-3.056h1.43c1.225 0 1.817.548 1.817 1.553 0 1-.592 1.503-1.807 1.503H2.12zM11.786 46.542h6.778v-1.76h-4.657v-2.41h4.29v-1.759h-4.29v-2.405h4.638v-1.76h-6.759v10.094zM24.695 46.542l.745-2.301h3.619l.744 2.301h2.272L28.618 36.45h-2.733l-3.462 10.093h2.272zm1.283-3.967l1.234-3.82h.079l1.234 3.82h-2.547zM36.019 46.542h6.42v-1.76h-4.3V36.45h-2.12v10.093zM52.507 46.542h6.778v-1.76h-4.657v-2.41h4.29v-1.759h-4.29v-2.405h4.638v-1.76h-6.759v10.094zM69.129 39.352h2.032c-.03-1.8-1.499-3.041-3.732-3.041-2.199 0-3.81 1.222-3.8 3.056-.005 1.488 1.038 2.34 2.733 2.75l1.092.276c1.092.266 1.7.581 1.704 1.261-.005.74-.7 1.242-1.778 1.242-1.102 0-1.895-.512-1.964-1.523h-2.051c.053 2.184 1.606 3.312 4.04 3.312 2.448 0 3.888-1.178 3.893-3.026-.005-1.68-1.263-2.572-3.007-2.967l-.901-.217c-.872-.202-1.601-.527-1.587-1.252 0-.65.573-1.128 1.612-1.128 1.013 0 1.635.463 1.714 1.257zM75.079 38.208h3.07v8.334h2.096v-8.334h3.07v-1.76H75.08v1.76zM87.898 46.542l.745-2.301h3.619l.744 2.301h2.272L91.821 36.45h-2.733l-3.462 10.093h2.272zm1.283-3.967l1.234-3.82h.079l1.234 3.82H89.18zM97.6 38.208h3.071v8.334h2.096v-8.334h3.071v-1.76h-8.237v1.76zM109.931 46.542h6.777v-1.76h-4.657v-2.41h4.29v-1.759h-4.29v-2.405h4.638v-1.76h-6.758v10.094zM128.767 46.542l.745-2.301h3.619l.744 2.301h2.273L132.69 36.45h-2.733l-3.462 10.093h2.272zm1.284-3.967l1.234-3.82h.078l1.234 3.82h-2.546zM146.27 39.712h2.155c-.274-1.997-2.023-3.401-4.29-3.401-2.65 0-4.692 1.922-4.692 5.194 0 3.194 1.91 5.175 4.736 5.175 2.532 0 4.339-1.611 4.339-4.268v-1.271h-4.197v1.606h2.155c-.03 1.252-.877 2.046-2.287 2.046-1.592 0-2.596-1.198-2.596-3.307 0-2.1 1.043-3.288 2.576-3.288 1.092 0 1.832.567 2.101 1.514zM152.847 46.542h6.778v-1.76h-4.658v-2.41h4.29v-1.759h-4.29v-2.405h4.638v-1.76h-6.758v10.094zM172.416 36.449h-2.111v6.348h-.088l-4.329-6.348h-1.861v10.093h2.121V40.19h.073l4.364 6.352h1.831V36.45zM185.754 39.983c-.279-2.332-2.033-3.672-4.354-3.672-2.649 0-4.672 1.883-4.672 5.185 0 3.292 1.988 5.184 4.672 5.184 2.571 0 4.124-1.72 4.354-3.578l-2.145-.01c-.201 1.08-1.043 1.7-2.175 1.7-1.523 0-2.556-1.138-2.556-3.296 0-2.1 1.019-3.298 2.571-3.298 1.161 0 1.998.676 2.16 1.785h2.145zM189.423 36.449l3.658 6.525v3.568h2.106v-3.568l3.658-6.525h-2.375l-2.287 4.347h-.098l-2.287-4.347h-2.375z"/></g></svg><svg fill="none" viewBox="0 0 20 19" id="favorites" xmlns="http://www.w3.org/2000/svg"><path d="M14.5 0C17.538 0 20 2.5 20 6c0 7-7.5 11-10 12.5C7.5 17 0 13 0 6c0-3.5 2.5-6 5.5-6C7.36 0 9 1 10 2c1-1 2.64-2 4.5-2zm-3.566 15.604a26.953 26.953 0 002.42-1.701C16.335 11.533 18 8.943 18 6c0-2.36-1.537-4-3.5-4-1.076 0-2.24.57-3.086 1.414L10 4.828 8.586 3.414C7.74 2.57 6.576 2 5.5 2 3.56 2 2 3.656 2 6c0 2.944 1.666 5.533 4.645 7.903.745.592 1.54 1.145 2.421 1.7.299.189.595.37.934.572.339-.202.635-.383.934-.571z" fill="#AAAEB3"/></svg><svg fill="none" viewBox="0 0 10 6" id="lang" xmlns="http://www.w3.org/2000/svg"><path d="M5 5.333l-5-5h10l-5 5z" fill="#161718"/></svg><svg fill="none" viewBox="0 0 12 12" id="location" xmlns="http://www.w3.org/2000/svg"><path d="M11.6.016L.209 3.804a.303.303 0 00-.017.568l5.29 2.111 2.681 5.35a.303.303 0 00.563-.052L11.988.385a.302.302 0 00-.387-.37z" fill="#909499"/></svg><svg fill="none" viewBox="0 0 116 27" id="logo" xmlns="http://www.w3.org/2000/svg"><path d="M114 15h-1.5l-1-11-3-1h-2v12H104V1h2l3.5-.5 3.5 1 1 2V15z" fill="#161718"/><path fill-rule="evenodd" clip-rule="evenodd" d="M106.585 0h-2.831a.61.61 0 00-.619.6V15h1.237V1.2h2.185c1.395 0 2.404 0 3.198.064.787.062 1.307.183 1.734.394a4.265 4.265 0 011.892 1.836c.217.414.342.92.406 1.683.065.77.065 1.75.065 3.103V15h1.237V8.253c0-1.32 0-2.35-.07-3.174-.07-.838-.215-1.518-.537-2.13a5.481 5.481 0 00-2.431-2.36c-.631-.312-1.332-.453-2.195-.521-.85-.068-1.91-.068-3.271-.068z" fill="#161718"/><path fill-rule="evenodd" clip-rule="evenodd" d="M108.067 2.4h-1.84a.61.61 0 00-.618.6v12h1.237V3.6h1.195c.703 0 1.193 0 1.574.03.374.03.589.086.752.166.349.173.633.448.81.787.083.158.14.367.171.73.031.37.032.845.032 1.527V15h1.236V6.814c0-.65 0-1.174-.036-1.6-.036-.436-.114-.82-.301-1.176a3.044 3.044 0 00-1.351-1.31c-.366-.182-.762-.257-1.212-.293-.438-.035-.979-.035-1.649-.035zM93.504 0h2.831a.61.61 0 01.618.6V15h-1.236V1.2h-2.185c-1.395 0-2.404 0-3.198.063-.787.063-1.307.183-1.734.395a4.266 4.266 0 00-1.892 1.835c-.218.415-.342.92-.406 1.683-.065.77-.065 1.75-.065 3.104V15H85V8.253c0-1.321 0-2.35.07-3.175.07-.837.215-1.518.537-2.13a5.485 5.485 0 012.431-2.36c.631-.311 1.332-.452 2.195-.52C91.083 0 92.143 0 93.504 0z" fill="#161718"/><path fill-rule="evenodd" clip-rule="evenodd" d="M88 15h-2.5V5.5l1-2 1-2 3.5-1 3.5.5h2v14H94v-4.5l-3-.5-3 .5V15zm0-7.5l.5-1.5V4.5l1-1h1L92 3l1.5.5V8H91l-1.556-.019L88 7.5z" fill="#161718"/><path fill-rule="evenodd" clip-rule="evenodd" d="M92.022 2.4h1.84a.61.61 0 01.618.6v4.8a.61.61 0 01-.618.6H88.09a.61.61 0 01-.618-.6v-.986c0-.65 0-1.174.035-1.6.037-.436.115-.82.302-1.176a3.047 3.047 0 011.35-1.31c.367-.182.763-.257 1.213-.293.438-.035.978-.035 1.648-.035zm-1.548 1.23c-.374.03-.59.086-.752.166a1.828 1.828 0 00-.81.787c-.084.158-.14.367-.171.73-.031.37-.032.845-.032 1.527v.36h4.534V3.6h-1.195c-.703 0-1.193 0-1.574.03zM87.473 10.2c0-.332.276-.6.618-.6h5.77a.61.61 0 01.619.6V15h-1.237v-4.2H88.71V15h-1.236v-4.8zM79.14 5c0-2.761-2.307-5-5.153-5h-6.182a.61.61 0 00-.619.6V15h1.237V1.2h5.564c2.163 0 3.916 1.702 3.916 3.8v.367c0 1.111-.827 2.059-1.956 2.242a.21.21 0 00-.21.21v.241c0 .407.22.78.571.986.244.143.387.238.512.342a2.981 2.981 0 011.034 1.745c.047.253.05.534.05 1.246V15h1.236V12.38v-.062c0-.63 0-1.026-.07-1.398a4.173 4.173 0 00-1.638-2.591c1.034-.616 1.708-1.722 1.708-2.96V5z" fill="#161718"/><path fill-rule="evenodd" clip-rule="evenodd" d="M70.5 15h-3L68 .5h3l3.5.5 2.5.5L78.5 5 78 7.5l-1.5 1 2 3V15H76v-3l-1-2-2-1-2.5.5-.5 2 .5 3.5zm5-8.5L76 5V3.5l-1-1h-1l-1.5.5h-2v4.5l3-.5 1.556-.019.444-.481z" fill="#161718"/><path fill-rule="evenodd" clip-rule="evenodd" d="M69.66 3v4c0 .16.064.312.18.424a.628.628 0 00.438.176h4.533a.612.612 0 00.37-.125l.068-.05.036-.036c.255-.247.429-.416.56-.585a2.93 2.93 0 000-3.608c-.131-.169-.305-.338-.56-.585l-.036-.035-.067-.051a.612.612 0 00-.37-.125h-4.534a.628.628 0 00-.438.176.59.59 0 00-.18.424zm4.456.6c.281 0 .569.096.74.318a1.758 1.758 0 010 2.165c-.171.222-.459.317-.74.317h-3.22V3.6h3.22zM69.66 9.4V15h1.236v-5h1.195c.703 0 1.193 0 1.574.03.374.03.59.086.752.166.349.173.633.448.81.787.084.158.14.366.171.73.031.37.032.845.032 1.527V15h1.236v-1.786c0-.65 0-1.175-.035-1.6-.037-.437-.115-.82-.302-1.176a3.047 3.047 0 00-1.35-1.311c-.367-.181-.763-.257-1.213-.292-.438-.035-.978-.035-1.648-.035h-1.84a.628.628 0 00-.438.176.59.59 0 00-.18.424z" fill="#161718"/><path d="M61 3.5v-3h-1.5l-4 .5-2 .5L52 4v2l-.5 8.5H61V12l-6.5.5V9H59V7h-4.5l-.5-.5.5-1.5L56 3.5h5z" fill="#161718"/><path fill-rule="evenodd" clip-rule="evenodd" d="M51 8.364v6.028c0 .336.286.608.638.608H61v-1.216h-8.723V8.392c0-1.372 0-2.365.067-3.146.066-.773.195-1.285.42-1.706a4.368 4.368 0 011.952-1.86c.441-.214.979-.336 1.79-.4.82-.063 1.862-.064 3.303-.064H61V0h-1.22c-1.406 0-2.5 0-3.377.068-.891.07-1.615.212-2.266.529a5.617 5.617 0 00-2.51 2.391c-.333.62-.483 1.31-.555 2.16C51 5.982 51 7.024 51 8.363z" fill="#161718"/><path fill-rule="evenodd" clip-rule="evenodd" d="M53.553 8.716v3.243c0 .161.067.316.187.43.12.114.282.178.451.178h6.808v-1.216h-6.17V9.324H59V8.108h-4.808a.655.655 0 00-.451.178.594.594 0 00-.187.43zM54.833 6.08c.005-.352.02-.528.062-.674a1.872 1.872 0 011.354-1.29c.223-.057.514-.062 1.346-.062H61V2.838H57.497c-.696 0-1.171 0-1.579.103-1.101.281-1.961 1.101-2.257 2.15-.109.388-.108.84-.108 1.504v.702H59V6.081h-4.167z" fill="#161718"/><path d="M29 15h-1.5l-1-11-3-1h-2v12H19V1h2l3.5-.5 3.5 1 1 2V15z" fill="#161718"/><path fill-rule="evenodd" clip-rule="evenodd" d="M21.585 0h-2.831a.61.61 0 00-.619.6V15h1.237V1.2h2.185c1.395 0 2.404 0 3.198.064.787.062 1.307.183 1.734.394a4.266 4.266 0 011.892 1.836c.217.414.342.92.406 1.683.065.77.065 1.75.065 3.103V15h1.237V8.253c0-1.32 0-2.35-.07-3.174-.07-.838-.215-1.518-.537-2.13a5.485 5.485 0 00-2.431-2.36C26.42.277 25.719.136 24.856.068 24.006 0 22.946 0 21.585 0z" fill="#161718"/><path fill-rule="evenodd" clip-rule="evenodd" d="M23.067 2.4h-1.84a.61.61 0 00-.618.6v12h1.237V3.6h1.195c.703 0 1.193 0 1.574.03.374.03.59.086.752.166.349.173.633.448.81.787.084.158.14.367.171.73.031.37.032.845.032 1.527V15h1.236V6.814c0-.65 0-1.174-.035-1.6-.037-.436-.115-.82-.302-1.176a3.047 3.047 0 00-1.35-1.31c-.367-.182-.763-.257-1.213-.293-.438-.035-.979-.035-1.649-.035zM8.504 0h2.831a.61.61 0 01.618.6V15h-1.236V1.2H8.532c-1.395 0-2.404 0-3.198.063-.787.063-1.307.183-1.734.395a4.266 4.266 0 00-1.892 1.835c-.217.415-.342.92-.406 1.683-.065.77-.065 1.75-.065 3.104V15H0V8.253c0-1.321 0-2.35.07-3.175.07-.837.215-1.518.536-2.13A5.485 5.485 0 013.038.588C3.67.278 4.37.137 5.233.069 6.083 0 7.143 0 8.504 0z" fill="#161718"/><path fill-rule="evenodd" clip-rule="evenodd" d="M3 15H.5V5.5l1-2 1-2L6 .5l3.5.5h2v14H9v-4.5L6 10l-3 .5V15zm0-7.5L3.5 6V4.5l1-1h1L7 3l1.5.5V8H6l-1.556-.019L3 7.5z" fill="#161718"/><path fill-rule="evenodd" clip-rule="evenodd" d="M7.021 2.4h1.84a.61.61 0 01.619.6v4.8a.61.61 0 01-.618.6H3.09a.61.61 0 01-.618-.6v-.986c0-.65 0-1.174.035-1.6.037-.436.115-.82.302-1.176a3.047 3.047 0 011.35-1.31c.367-.182.763-.257 1.213-.293.438-.035.978-.035 1.648-.035zM5.474 3.63c-.374.03-.59.086-.752.166a1.828 1.828 0 00-.81.787c-.084.158-.14.367-.171.73-.031.37-.032.845-.032 1.527v.36h4.534V3.6H7.048c-.703 0-1.193 0-1.574.03zM2.473 10.2c0-.332.276-.6.618-.6h5.77a.61.61 0 01.619.6V15H8.243v-4.2H3.71V15H2.473v-4.8z" fill="#161718"/><path d="M34 0h3l4 8.5L44.5 0h3L41 14.5 34 0z" fill="#161718"/><path fill-rule="evenodd" clip-rule="evenodd" d="M40.806 15h-.412l-.132-.36-6.173-13.45A6.753 6.753 0 0033.387 0h1.5l5.92 12.895L46.724 0h1.5c-.273.372-.509.77-.701 1.19L41.35 14.64l-.133.36h-.412z" fill="#161718"/><path fill-rule="evenodd" clip-rule="evenodd" d="M40.806 9.167a.595.595 0 01-.54-.372L36.684.417 36.478 0h1.285l3.043 6.997L43.849 0h1.285l-.206.557-3.583 8.238a.595.595 0 01-.54.372z" fill="#161718"/><path d="M0 26.917h1.226v-2.069h.895l1.1 2.07h1.353l-1.232-2.27c.66-.285 1.025-.863 1.025-1.661 0-1.16-.761-1.907-2.079-1.907H0v5.837zm1.226-3.06v-1.768h.827c.708 0 1.051.316 1.051.898 0 .578-.343.87-1.045.87h-.833zM6.816 26.917h3.92V25.9H8.043v-1.394h2.481v-1.018H8.043v-1.39h2.682V21.08H6.816v5.837zM14.282 26.917l.43-1.33h2.094l.43 1.33h1.314l-2-5.837h-1.58l-2.002 5.837h1.314zm.742-2.294l.714-2.21h.045l.714 2.21h-1.473zM20.831 26.917h3.713V25.9h-2.486v-4.82H20.83v5.837zM30.367 26.917h3.92V25.9h-2.694v-1.394h2.482v-1.018h-2.482v-1.39h2.683V21.08h-3.909v5.837zM39.98 22.759h1.175c-.017-1.04-.867-1.759-2.158-1.759-1.272 0-2.203.707-2.198 1.767-.003.861.6 1.354 1.58 1.59l.632.16c.632.154.983.337.986.73-.003.428-.405.718-1.028.718-.638 0-1.096-.296-1.136-.88h-1.187c.031 1.262.93 1.915 2.337 1.915 1.416 0 2.249-.681 2.252-1.75-.003-.972-.731-1.488-1.74-1.716l-.52-.125c-.505-.117-.927-.305-.918-.724 0-.377.331-.653.931-.653.587 0 .947.268.992.727zM43.42 22.097h1.777v4.82h1.212v-4.82h1.776V21.08H43.42v1.017zM50.835 26.917l.43-1.33h2.094l.43 1.33h1.314l-2-5.837h-1.58l-2.002 5.837h1.314zm.742-2.294l.714-2.21h.045l.714 2.21h-1.473zM56.446 22.097h1.776v4.82h1.212v-4.82h1.776V21.08h-4.764v1.017zM63.577 26.917h3.92V25.9h-2.693v-1.394h2.48v-1.018h-2.48v-1.39h2.682V21.08h-3.909v5.837zM74.471 26.917l.43-1.33h2.094l.43 1.33h1.315l-2-5.837h-1.58l-2.003 5.837h1.314zm.742-2.294l.714-2.21h.045l.714 2.21h-1.473zM84.594 22.967h1.246C85.681 21.812 84.67 21 83.359 21c-1.532 0-2.713 1.112-2.713 3.004 0 1.847 1.104 2.993 2.738 2.993 1.465 0 2.51-.932 2.51-2.468v-.736h-2.428v.93h1.247c-.017.724-.507 1.183-1.323 1.183-.92 0-1.501-.693-1.501-1.913 0-1.214.603-1.901 1.49-1.901.631 0 1.059.328 1.215.875zM88.397 26.917h3.92V25.9h-2.693v-1.394h2.48v-1.018h-2.48v-1.39h2.682V21.08h-3.909v5.837zM99.715 21.08h-1.22v3.671h-.052L95.94 21.08h-1.077v5.837h1.227v-3.674h.042l2.524 3.674h1.06V21.08zM107.429 23.123c-.162-1.348-1.176-2.123-2.518-2.123-1.532 0-2.702 1.089-2.702 2.999 0 1.904 1.15 2.998 2.702 2.998 1.487 0 2.385-.995 2.518-2.07l-1.241-.005c-.116.624-.603.983-1.257.983-.881 0-1.479-.658-1.479-1.906 0-1.215.589-1.907 1.487-1.907.671 0 1.156.39 1.249 1.032h1.241zM109.551 21.08l2.115 3.774v2.063h1.218v-2.063L115 21.08h-1.374l-1.322 2.514h-.057l-1.323-2.514h-1.373z" fill="#AAAEB3"/></svg><svg fill="none" viewBox="0 0 17 8" id="more-arrow" xmlns="http://www.w3.org/2000/svg"><path d="M16.354 4.354a.5.5 0 000-.708L13.172.464a.5.5 0 10-.708.708L15.293 4l-2.829 2.828a.5.5 0 10.708.708l3.182-3.182zM0 4.5h16v-1H0v1z" fill="#4383FF"/></svg><svg fill="none" viewBox="0 0 10 6" id="select_arrow" xmlns="http://www.w3.org/2000/svg"><path d="M5 5.333l-5-5h10l-5 5z" fill="#C4C8CC"/></svg><svg fill="none" viewBox="0 0 16 16" id="shower" xmlns="http://www.w3.org/2000/svg"><path d="M5.635 0C3.079 0 1 1.955 1 4.357V16h1.72V4.357c0-1.511 1.307-2.74 2.915-2.74 1.17 0 2.18.65 2.644 1.586a5.363 5.363 0 011.802-.078C9.514 1.32 7.735 0 5.635 0z" fill="var(--actual-card__ptags)"/><path d="M9.41 4.053c-2.22 0-4.026 1.698-4.026 3.785v.485h8.054v-.485c0-2.087-1.807-3.785-4.027-3.785zM5.275 8.918l-.084.375-1.37 6.122 1.009.2 1.416-6.322.039-.175-1.01-.2zM7.107 9.293l-.024-.002v.002l-.728 6.495 1.026.101.728-6.497-1.002-.1zM9.926 9.503H8.895V16h1.031V9.503zM11.738 9.293V9.29l-.024.002-1.002.1.728 6.496 1.025-.101-.727-6.495zM13.629 9.293l-.085-.375-1.009.2.04.175 1.415 6.322 1.01-.2-1.371-6.122z" fill="var(--actual-card__ptags)"/></svg><svg fill="none" viewBox="0 0 16 16" id="slide_arrow" xmlns="http://www.w3.org/2000/svg"><path d="M12.172 7L6.808 1.636 8.222.222 16 8l-7.778 7.778-1.414-1.414L12.172 9H0V7h12.172z" fill="#000"/></svg><svg fill="none" viewBox="0 0 8 6" id="triangle" xmlns="http://www.w3.org/2000/svg"><path d="M2.669 1.997c.445-.668.667-1.002.948-1.118a1 1 0 01.766 0c.28.116.503.45.948 1.118l1.01 1.515c.54.809.809 1.213.789 1.548a1 1 0 01-.395.738C6.467 6 5.982 6 5.01 6H2.99c-.972 0-1.457 0-1.725-.202A1 1 0 01.87 5.06c-.02-.335.25-.74.788-1.548l1.01-1.515z" fill="#161718"/></svg><svg fill="none" viewBox="0 0 22 19" id="triangle-object-map" xmlns="http://www.w3.org/2000/svg"><path d="M12.715 17.142c-.777 1.294-2.653 1.294-3.43 0L.817 3.029C.017 1.696.977 0 2.532 0h16.936c1.554 0 2.514 1.696 1.715 3.029l-8.468 14.113z" fill="#13151F"/></svg></svg>