<svg width="16" height="16" viewBox="0 0 16 16" fill="none" xmlns="http://www.w3.org/2000/svg">
<path d="M15.0625 6.6875H14.125C13.6072 6.6875 13.1875 7.10722 13.1875 7.625V10.4375H2.8125V7.625C2.8125 7.10722 2.39278 6.6875 1.875 6.6875H0.9375C0.419719 6.6875 0 7.10722 0 7.625C0 8.14272 0.419719 8.5625 0.9375 8.5625V13.25H2.8125L3.75 12.3125H12.25L13.1875 13.25H15.0625V8.5625C15.5803 8.5625 16 8.14272 16 7.625C16 7.10722 15.5803 6.6875 15.0625 6.6875Z" fill="var(--actual-card__ptags)"/>
<path d="M3.75 8.5625H12.25V9.5H3.75V8.5625Z" fill="var(--actual-card__ptags)"/>
<path d="M1.875 4.34375V5.75C2.90909 5.75 3.75 6.59091 3.75 7.625H12.25C12.25 6.59091 13.0909 5.75 14.125 5.75V4.34375C14.125 3.05147 13.0735 2 11.7812 2H4.21875C2.92647 2 1.875 3.05147 1.875 4.34375ZM9.875 3.21216L10.5378 3.875L9.875 4.53784L9.21216 3.875L9.875 3.21216ZM9.875 5.08716L10.5378 5.75L9.875 6.41284L9.21216 5.75L9.875 5.08716ZM8 3.21216L8.66284 3.875L8 4.53784L7.33716 3.875L8 3.21216ZM8 5.08716L8.66284 5.75L8 6.41284L7.33716 5.75L8 5.08716ZM6.125 3.21216L6.78784 3.875L6.125 4.53784L5.43091 3.875L6.125 3.21216ZM6.125 5.08716L6.78784 5.75L6.125 6.41284L5.43091 5.75L6.125 5.08716Z" fill="var(--actual-card__ptags)"/>
</svg>
