<svg width="16" height="16" viewBox="0 0 16 16" fill="none" xmlns="http://www.w3.org/2000/svg">
<path d="M15.352 0H13.1872V0.9375H13.835L12.8975 2.8125H15.0622V1.875H14.4145L15.352 0Z" fill="var(--actual-card__ptags)"/>
<path d="M11.5395 2.8125H9.37471V3.75H10.0225L9.08496 5.625H11.2497V4.6875H10.602L11.5395 2.8125Z" fill="var(--actual-card__ptags)"/>
<path d="M5.77834 2.62941C5.56869 2.74934 5.40069 2.8125 5.15625 2.8125C4.38081 2.8125 3.75 2.25403 3.75 1.47856C3.75 1.23412 3.81316 0.993781 3.93309 0.784125L4.38125 0L3.48175 0.0851562C2.03156 0.222469 0.9375 1.35359 0.9375 2.8125C0.9375 4.36341 2.19909 5.625 3.75 5.625C5.20891 5.625 6.34003 4.53094 6.47734 3.08075L6.5625 2.18125L5.77834 2.62941Z" fill="var(--actual-card__ptags)"/>
<path d="M13.6562 6.5625H7.96875C6.67431 6.5625 5.625 7.61181 5.625 8.90625V11.25H16V8.90625C16 7.61181 14.9507 6.5625 13.6562 6.5625Z" fill="var(--actual-card__ptags)"/>
<path d="M0.9375 12.1875V11.25H4.6875V10.3125H0.9375V5.625H0V16H0.9375V15.0625H15.0625V16H16V12.1875H0.9375Z" fill="var(--actual-card__ptags)"/>
<path d="M3.28125 9.375C4.0579 9.375 4.6875 8.7454 4.6875 7.96875C4.6875 7.1921 4.0579 6.5625 3.28125 6.5625C2.5046 6.5625 1.875 7.1921 1.875 7.96875C1.875 8.7454 2.5046 9.375 3.28125 9.375Z" fill="var(--actual-card__ptags)"/>
</svg>
