<svg width="20" height="20" viewBox="0 0 20 20" fill="none" xmlns="http://www.w3.org/2000/svg">
<path d="M19.1907 0H16.4847V1.17188H17.2944L16.1226 3.51562H18.8285V2.34375H18.0188L19.1907 0Z" fill="#909499"/>
<path d="M14.4251 3.51562H11.7191V4.6875H12.5288L11.3569 7.03125H14.0629V5.85938H13.2532L14.4251 3.51562Z" fill="#909499"/>
<path d="M7.22293 3.28676C6.96086 3.43668 6.75086 3.51562 6.44531 3.51562C5.47602 3.51562 4.6875 2.81754 4.6875 1.8482C4.6875 1.54266 4.76645 1.24223 4.91637 0.980156L5.47656 0L4.35219 0.106445C2.53945 0.278086 1.17188 1.69199 1.17188 3.51562C1.17188 5.45426 2.74887 7.03125 4.6875 7.03125C6.51113 7.03125 7.92504 5.66367 8.09668 3.85094L8.20312 2.72656L7.22293 3.28676Z" fill="#909499"/>
<path d="M17.0703 8.20312H9.96094C8.34289 8.20312 7.03125 9.51477 7.03125 11.1328V14.0625H20V11.1328C20 9.51477 18.6884 8.20312 17.0703 8.20312Z" fill="#909499"/>
<path d="M1.17188 15.2344V14.0625H5.85938V12.8906H1.17188V7.03125H0V20H1.17188V18.8281H18.8281V20H20V15.2344H1.17188Z" fill="#909499"/>
<path d="M4.10156 11.7188C5.07238 11.7188 5.85938 10.9318 5.85938 9.96094C5.85938 8.99012 5.07238 8.20312 4.10156 8.20312C3.13075 8.20312 2.34375 8.99012 2.34375 9.96094C2.34375 10.9318 3.13075 11.7188 4.10156 11.7188Z" fill="#909499"/>
</svg>
