<svg width="20" height="20" viewBox="0 0 20 20" fill="none" xmlns="http://www.w3.org/2000/svg">
<path d="M7.04373 0C3.84907 0 1.25 2.4434 1.25 5.44669V20H3.39898V5.44669C3.39898 3.55739 5.03402 2.02032 7.04373 2.02032C8.50521 2.02032 9.76782 2.83356 10.3483 4.00364C10.8033 3.90548 11.2767 3.85352 11.7629 3.85352C12.047 3.85352 12.3267 3.87153 12.601 3.90587C11.8922 1.65059 9.66934 0 7.04373 0Z" fill="#909499"/>
<path d="M11.7629 5.06567C8.98735 5.06567 6.72925 7.18853 6.72925 9.79787V10.404H16.7966V9.79787C16.7966 7.18853 14.5385 5.06567 11.7629 5.06567Z" fill="#909499"/>
<path d="M6.59498 11.1477L6.49007 11.6161L4.77612 19.269L6.03786 19.5188L7.80774 11.6161L7.85668 11.3974L6.59498 11.1477Z" fill="#909499"/>
<path d="M8.88332 11.6161L8.85303 11.6132L8.85274 11.6161L7.9436 19.7345L9.22591 19.8615L10.1353 11.7401L8.88332 11.6161Z" fill="#909499"/>
<path d="M12.4076 11.8785H11.1182V19.9997H12.4076V11.8785Z" fill="#909499"/>
<path d="M14.6731 11.6161L14.6727 11.6132L14.6424 11.6161L13.3904 11.7401L14.2999 19.8615L15.5822 19.7345L14.6731 11.6161Z" fill="#909499"/>
<path d="M17.0363 11.6161L16.9314 11.1477L15.6697 11.3974L15.7186 11.6161L17.4885 19.5188L18.7503 19.269L17.0363 11.6161Z" fill="#909499"/>
</svg>
