<svg width="20" height="20" viewBox="0 0 20 20" fill="none" xmlns="http://www.w3.org/2000/svg">
<path d="M7.65625 10.592L12.9294 12.7015V8.48279L7.65625 10.592Z" fill="#909499"/>
<path d="M14.1016 8.48279V12.7015L19.4139 10.592L14.1016 8.48279Z" fill="#909499"/>
<path d="M7.07031 3.32629V9.56411L12.9297 7.22036V5.67012L7.07031 3.32629Z" fill="#909499"/>
<path d="M13.5153 0L7.65625 2.29863L13.5153 4.6423L19.4134 2.29863L13.5153 0Z" fill="#909499"/>
<path d="M14.1016 5.67012V7.22036L20 9.56403V3.32629L14.1016 5.67012Z" fill="#909499"/>
<path d="M18.8284 15.2734V17.6172H17.6566V15.2734H16.4456V17.6172H15.2737V15.2734H14.1019V17.6172H12.93V15.2734H11.7581V17.6172H10.5862V15.2734H9.41436V17.6172H8.24249V15.2734H7.07061V17.6172H5.89874V15.2734H5.55542L0.828857 20H20.0003V15.2734H18.8284Z" fill="#909499"/>
<path d="M4.72656 1.17187V0H0V19.1714L4.72656 14.4449V14.0625H2.34375V12.8906H4.72656V11.7187H2.34375V10.5469H4.72656V9.375H2.34375V8.20312H4.72656V7.03125H2.34375V5.85937H4.72656V4.6875H2.34375V3.51562H4.72656V2.34375H2.34375V1.17187H4.72656Z" fill="#909499"/>
</svg>
