<svg width="20" height="20" viewBox="0 0 20 20" fill="none" xmlns="http://www.w3.org/2000/svg">
<path d="M20 9.31701V2.35293H16.9698V0H9.0911V5.88232H16.9698V3.52939H18.7879V8.32996L8.48505 10.0947V12.3529H7.27295V14.7058H10.9093V12.3529H9.69715V11.0817L20 9.31701Z" fill="#909499"/>
<path d="M1.2121 2.35293H0V3.52939H1.2121V5.88232H3.63631V0H1.2121V2.35293Z" fill="#909499"/>
<path d="M7.87888 6.76467V0H4.84863V6.76467C4.84863 7.57686 5.52696 8.23525 6.36376 8.23525C7.20055 8.23525 7.87888 7.57686 7.87888 6.76467Z" fill="#909499"/>
<path d="M7.27295 18.2353C7.27295 19.2099 8.08696 20 9.09111 20C10.0953 20 10.9093 19.2099 10.9093 18.2353V15.8823H7.27295V18.2353Z" fill="#909499"/>
</svg>
