<svg width="20" height="20" viewBox="0 0 20 20" fill="none" xmlns="http://www.w3.org/2000/svg">
<path d="M1.17187 1.17187H2.15664V0H0V2.15668H1.17187V1.17187Z" fill="#909499"/>
<path d="M0 3.56854H1.17187V5.72521H0V3.56854Z" fill="#909499"/>
<path d="M0 7.13727H1.17187V9.29395H0V7.13727Z" fill="#909499"/>
<path d="M14.2749 0H16.4315V1.17187H14.2749V0Z" fill="#909499"/>
<path d="M10.7063 0H12.8629V1.17187H10.7063V0Z" fill="#909499"/>
<path d="M7.13745 0H9.29409V1.17187H7.13745V0Z" fill="#909499"/>
<path d="M3.5686 0H5.72524V1.17187H3.5686V0Z" fill="#909499"/>
<path d="M17.843 0V1.17187H18.8278V2.15668H19.9997V0H17.843Z" fill="#909499"/>
<path d="M18.8281 3.56854H20V5.72521H18.8281V3.56854Z" fill="#909499"/>
<path d="M18.8281 7.13727H20V9.29395H18.8281V7.13727Z" fill="#909499"/>
<path d="M18.8281 10.706H20V12.8627H18.8281V10.706Z" fill="#909499"/>
<path d="M18.8281 14.2747H20V16.4314H18.8281V14.2747Z" fill="#909499"/>
<path d="M18.8278 18.8281H17.843V20H19.9997V17.8433H18.8278V18.8281Z" fill="#909499"/>
<path d="M14.2749 18.8281H16.4315V20H14.2749V18.8281Z" fill="#909499"/>
<path d="M10.7063 18.8281H12.8629V20H10.7063V18.8281Z" fill="#909499"/>
<path d="M0 10.706H9.29398V20H0V10.706Z" fill="#909499"/>
<path d="M14.0613 4.52862H14.6429L11.4973 7.67425V7.09261H10.3254V9.67476H12.9076V8.50288H12.3259L15.4716 5.35722V5.9389H16.6434V3.35675H14.0613V4.52862Z" fill="#909499"/>
</svg>
