<svg width="20" height="20" viewBox="0 0 20 20" fill="none" xmlns="http://www.w3.org/2000/svg">
<path d="M19.9998 7.72059V1.25H14.1174V7.72059H16.4704V17.7206H15.2939V18.8971H18.8233V17.7206H17.6468V7.72059H19.9998Z" fill="#909499"/>
<path d="M11.1765 13.0147V15.9559H2.94118C2.94118 14.6942 2.94118 14.3934 2.94118 13.0147C2.94118 11.3904 1.62439 10.0735 0 10.0735V17.7206H1.17647V18.8971H2.35294V17.7206H11.7647V18.8971H12.9412V17.7206H14.1176V10.0735C12.4933 10.0735 11.1765 11.3904 11.1765 13.0147Z" fill="#909499"/>
<path d="M10.0001 14.7794C10.0029 13.0131 9.99344 12.9888 10.0089 12.7471C9.66073 12.5436 9.25591 12.4265 8.82359 12.4265C7.78748 12.4265 6.39473 12.4265 5.29418 12.4265C4.86187 12.4265 4.45704 12.5436 4.10889 12.7471C4.12434 12.9888 4.11477 12.9714 4.11771 14.7794H10.0001Z" fill="#909499"/>
<path d="M5.29435 11.25H8.82376C9.33745 11.25 9.82564 11.3606 10.2663 11.5589C10.4698 11.0223 10.7823 10.539 11.1767 10.1361V6.54413H2.94141V10.1361C3.33584 10.539 3.64831 11.0223 3.8518 11.5589C4.29243 11.3606 4.78062 11.25 5.29435 11.25ZM7.64729 8.30883H8.82376V9.48531H7.64729V8.30883ZM5.29435 8.30883H6.47082V9.48531H5.29435V8.30883Z" fill="#909499"/>
</svg>
