<svg width="20" height="20" viewBox="0 0 20 20" fill="none" xmlns="http://www.w3.org/2000/svg">
<path d="M17.4942 13.4554C17.3951 12.8522 17.2961 12.2491 17.1971 11.646C17.1555 11.3962 16.911 11.2263 16.6506 11.2631C12.5554 11.8433 7.44449 11.8433 3.34928 11.2631C3.08882 11.2264 2.8444 11.396 2.80276 11.646C2.7037 12.2492 2.60471 12.8522 2.50565 13.4554C2.4641 13.705 2.65623 13.9425 2.93524 13.9819C3.29257 14.0325 3.65732 14.0786 4.02721 14.1209L3.12272 19.791L4.53072 20L5.44611 14.2613C5.61775 14.2756 5.79028 14.2891 5.96354 14.3018V18.0636H7.38811V14.3862C9.11375 14.4657 10.8859 14.4657 12.6115 14.3862V18.0636H14.0361V14.3018C14.2094 14.2891 14.3819 14.2757 14.5535 14.2613L15.469 20L16.877 19.791L15.9726 14.1209C16.3424 14.0786 16.7072 14.0325 17.0645 13.9819C17.3436 13.9425 17.5358 13.7052 17.4942 13.4554Z" fill="#909499"/>
<path d="M13.2381 0.0464937C11.0771 -0.015576 8.92308 -0.0154198 6.76205 0.0464937C4.96278 0.108095 3.61221 1.4405 3.76984 2.95053C3.99542 5.28754 4.22016 7.61087 4.28354 9.93815C6.17289 10.1941 8.09436 10.3241 10.0001 10.3241C11.9061 10.3241 13.8278 10.194 15.7166 9.93815C15.78 7.61091 16.0047 5.28754 16.2303 2.95053C16.3879 1.44078 15.0373 0.10829 13.2381 0.0464937ZM6.40472 8.45985C6.35907 6.52538 6.27119 4.57368 6.19124 2.91967L7.61431 2.85568C7.69466 4.51774 7.78299 6.47963 7.82896 8.4286L6.40472 8.45985ZM10.7124 8.44309H9.28779V2.86674H10.7124V8.44309ZM13.5954 8.45985L12.1712 8.42856C12.2172 6.4787 12.3055 4.51723 12.3858 2.85568L13.8089 2.91963C13.7289 4.57313 13.6411 6.52432 13.5954 8.45985Z" fill="#909499"/>
</svg>
