<svg width="46" height="53" viewBox="0 0 46 53" fill="none" xmlns="http://www.w3.org/2000/svg">
<path fill-rule="evenodd" clip-rule="evenodd" d="M27.2333 46.6359C27.4033 46.2071 27.7781 45.8969 28.2241 45.7925C38.4099 43.4066 46 34.1956 46 23.1967C46 10.3855 35.7025 0 23 0C10.2975 0 0 10.3855 0 23.1967C0 34.1956 7.5901 43.4066 17.7759 45.7925C18.2219 45.8969 18.5967 46.2071 18.7667 46.6359L21.7438 52.1423C22.1974 53.2859 23.8026 53.2859 24.2562 52.1423L27.2333 46.6359Z" fill="#161718"/>
<path d="M29.8333 29.5403C29.8333 29.7613 29.7455 29.9733 29.5893 30.1296C29.433 30.2858 29.221 30.3736 29 30.3736H17.3333C17.1123 30.3736 16.9004 30.2858 16.7441 30.1296C16.5878 29.9733 16.5 29.7613 16.5 29.5403V22.0403H14L22.6058 14.217C22.7593 14.0774 22.9592 14 23.1667 14C23.3741 14 23.5741 14.0774 23.7275 14.217L32.3333 22.0403H29.8333V29.5403ZM23.1667 25.3736C23.7192 25.3736 24.2491 25.1541 24.6398 24.7634C25.0305 24.3727 25.25 23.8428 25.25 23.2903C25.25 22.7378 25.0305 22.2079 24.6398 21.8172C24.2491 21.4265 23.7192 21.207 23.1667 21.207C22.6141 21.207 22.0842 21.4265 21.6935 21.8172C21.3028 22.2079 21.0833 22.7378 21.0833 23.2903C21.0833 23.8428 21.3028 24.3727 21.6935 24.7634C22.0842 25.1541 22.6141 25.3736 23.1667 25.3736Z" fill="white"/>
</svg>
