<svg width="48" height="48" viewBox="0 0 48 48" fill="none" xmlns="http://www.w3.org/2000/svg">
<path d="M47.2125 7.47253C46.7183 7.12078 46.0845 7.02966 45.5113 7.22831L25.875 14.0298V9C25.875 7.96444 25.0356 7.125 24 7.125H14.8125V1.875C14.8125 0.839438 13.9731 0 12.9375 0C11.9019 0 11.0625 0.839438 11.0625 1.875V7.125H1.875C0.839438 7.125 0 7.96444 0 9V46.125C0 47.1606 0.839438 48 1.875 48C11.5328 48 37.1417 48 46.125 48C47.1606 48 48 47.1606 48 46.125V9C48 8.39344 47.7066 7.82428 47.2125 7.47253ZM11.0625 24V44.25H3.75V10.875H22.125V22.125H12.9375C11.9019 22.125 11.0625 22.9644 11.0625 24ZM25.875 44.25H22.125V38.0626H25.875V44.25ZM33.1875 44.25H29.625V36.1876C29.625 35.152 28.7856 34.3126 27.75 34.3126H20.25C19.2144 34.3126 18.375 35.152 18.375 36.1876V44.25H14.8125V25.875H33.1875V44.25ZM44.25 44.25H36.9375V24C36.9375 22.9644 36.0981 22.125 35.0625 22.125H25.875V17.9983L44.25 11.6337V44.25Z" fill="#C4C8CC"/>
</svg>
