<svg width="48" height="48" viewBox="0 0 48 48" fill="none" xmlns="http://www.w3.org/2000/svg">
<path d="M46.125 17.9999C47.1606 17.9999 48 17.1605 48 16.1249V8.99993C48 8.1858 47.4746 7.46477 46.6998 7.21521L24.5748 0.0902109C24.2011 -0.0300703 23.799 -0.0300703 23.4252 0.0902109L1.30022 7.21521C0.525375 7.46477 0 8.1858 0 8.99993V16.1249C0 17.1605 0.839438 17.9999 1.875 17.9999H4.6875V37.1249H1.875C0.839438 37.1249 0 37.9644 0 38.9999V46.1249C0 47.1605 0.839438 47.9999 1.875 47.9999H46.125C47.1606 47.9999 48 47.1605 48 46.1249V38.9999C48 37.9644 47.1606 37.1249 46.125 37.1249H43.3125V17.9999H46.125ZM44.25 40.8749V44.2499H3.75V40.8749C5.07703 40.8749 43.7463 40.8749 44.25 40.8749ZM8.4375 37.1249V17.9999H11.8125V37.1249H8.4375ZM15.5625 37.1249V17.9999H18.5625V37.1249H15.5625ZM22.3125 37.1249V17.9999H25.6875V37.1249H22.3125ZM29.4375 37.1249V17.9999H32.4375V37.1249H29.4375ZM36.1875 37.1249V17.9999H39.5625V37.1249H36.1875ZM3.75 14.2499V10.366L24 3.84471L44.25 10.366V14.2499C44.0409 14.2499 4.13363 14.2499 3.75 14.2499Z" fill="#C4C8CC"/>
<path d="M24 12.2805C25.2944 12.2805 26.3438 11.2312 26.3438 9.93677C26.3438 8.64235 25.2944 7.59302 24 7.59302C22.7056 7.59302 21.6562 8.64235 21.6562 9.93677C21.6562 11.2312 22.7056 12.2805 24 12.2805Z" fill="#C4C8CC"/>
</svg>
