<svg width="48" height="48" viewBox="0 0 48 48" fill="none" xmlns="http://www.w3.org/2000/svg">
<path d="M3.89685 33.4413C3.89795 33.4409 3.89868 33.4406 3.89978 33.4398C3.90051 33.4395 3.90088 33.4391 3.90161 33.4387L6.98694 31.6575C7.88342 31.1396 9.0304 31.4469 9.54822 32.3438C10.0657 33.2406 9.75842 34.3872 8.86194 34.905L7.47546 35.7052C10.8146 40.4088 16.0756 43.6025 22.125 44.1625V42.5625C22.125 41.5269 22.9644 40.6875 24 40.6875C25.0356 40.6875 25.875 41.5269 25.875 42.5625V44.1636C35.5653 43.2795 43.2799 35.5638 44.1636 25.875H42.5625C41.5269 25.875 40.6875 25.0356 40.6875 24C40.6875 22.9644 41.5269 22.125 42.5625 22.125H44.1636C43.2799 12.4347 35.5638 4.72009 25.875 3.83643V5.4375C25.875 6.47314 25.0356 7.3125 24 7.3125C22.9644 7.3125 22.125 6.47314 22.125 5.4375V1.875C22.125 0.839355 22.9644 0 24 0C37.2642 0 48 10.734 48 24C48 37.2642 37.266 48 24 48C15.1337 48 7.36853 43.1851 3.21313 36.0033C2.69458 35.1072 3.00073 33.9598 3.89685 33.4413Z" fill="#C4C8CC"/>
<path d="M15.6559 9.5482C14.7631 10.0638 13.6147 9.7628 13.0946 8.86192L11.3134 5.77659C10.7956 4.88011 11.1028 3.73314 11.9997 3.21568C12.8961 2.69786 14.0431 3.00511 14.5609 3.90159L16.3422 6.98692C16.86 7.88377 16.5528 9.03038 15.6559 9.5482Z" fill="#C4C8CC"/>
<path d="M6.98705 16.3425L3.90172 14.5612C3.00523 14.0434 2.69761 12.8968 3.21544 12C3.73326 11.1031 4.88023 10.7959 5.77672 11.3137L8.86205 13.0949C9.75853 13.6128 10.0662 14.7594 9.54833 15.6562C9.02904 16.5556 7.88133 16.8589 6.98705 16.3425Z" fill="#C4C8CC"/>
<path d="M1.875 22.125H5.4375C6.47314 22.125 7.3125 22.9644 7.3125 24C7.3125 25.0356 6.47314 25.875 5.4375 25.875H1.875C0.839355 25.875 0 25.0356 0 24C0 22.9644 0.839355 22.125 1.875 22.125Z" fill="#C4C8CC"/>
<path d="M25.875 33.1875C25.875 34.2231 25.0356 35.0625 24 35.0625C22.9644 35.0625 22.125 34.2231 22.125 33.1875L22.125 27.2293C20.0479 26.4635 18.5625 24.4647 18.5625 22.125C18.5625 19.1268 21.0018 16.6875 24 16.6875C26.9982 16.6875 29.4375 19.1268 29.4375 22.125C29.4375 24.4647 27.9522 26.4635 25.875 27.2293L25.875 33.1875ZM24 20.4375C23.0695 20.4375 22.3125 21.1945 22.3125 22.125C22.3125 23.0555 23.0695 23.8125 24 23.8125C24.9305 23.8125 25.6875 23.0555 25.6875 22.125C25.6875 21.1945 24.9305 20.4375 24 20.4375Z" fill="#C4C8CC"/>
</svg>
