<svg width="48" height="34" viewBox="0 0 48 34" fill="none" xmlns="http://www.w3.org/2000/svg">
<path d="M42.375 0.125H5.625C2.52338 0.125 0 2.64838 0 5.75V28.25C0 31.3516 2.52338 33.875 5.625 33.875H42.375C45.4766 33.875 48 31.3516 48 28.25V5.75C48 2.64838 45.4766 0.125 42.375 0.125ZM44.25 28.25C44.25 29.2839 43.4089 30.125 42.375 30.125H5.625C4.59113 30.125 3.75 29.2839 3.75 28.25V5.75C3.75 4.71613 4.59113 3.875 5.625 3.875H42.375C43.4089 3.875 44.25 4.71613 44.25 5.75V28.25Z" fill="#C4C8CC"/>
<path d="M16.4062 6.21875H7.96875C6.93319 6.21875 6.09375 7.05819 6.09375 8.09375V16.5312C6.09375 17.5668 6.93319 18.4062 7.96875 18.4062H16.4062C17.4418 18.4062 18.2812 17.5668 18.2812 16.5312V8.09375C18.2812 7.05819 17.4418 6.21875 16.4062 6.21875ZM14.5312 14.6562H9.84375V9.96875H14.5312V14.6562Z" fill="#C4C8CC"/>
<path d="M40.0312 23.5625H26.9062C25.8707 23.5625 25.0312 24.4019 25.0312 25.4375C25.0312 26.4731 25.8707 27.3125 26.9062 27.3125H40.0312C41.0668 27.3125 41.9062 26.4731 41.9062 25.4375C41.9062 24.4019 41.0668 23.5625 40.0312 23.5625Z" fill="#C4C8CC"/>
</svg>
