<svg width="57" height="55" viewBox="0 0 57 55" fill="none" xmlns="http://www.w3.org/2000/svg">
<path d="M29.5654 46.001C28.9574 45.6598 28.2157 45.6598 27.6077 46.001L13.5758 53.8762C12.087 54.7118 10.3032 53.4181 10.6351 51.7434L13.7716 35.9136C13.9065 35.2326 13.6786 34.5303 13.1695 34.0582L1.34609 23.0965C0.0956619 21.9372 0.776463 19.8452 2.46968 19.6439L18.451 17.7435C19.1422 17.6613 19.7409 17.2257 20.0318 16.5934L26.7696 1.94899C27.4837 0.396935 29.6894 0.396929 30.4035 1.94899L37.1413 16.5934C37.4322 17.2257 38.0309 17.6613 38.7221 17.7435L54.7034 19.6439C56.3966 19.8452 57.0774 21.9372 55.827 23.0965L44.0036 34.0582C43.4945 34.5303 43.2666 35.2326 43.4015 35.9136L46.538 51.7434C46.8699 53.4181 45.0861 54.7118 43.5973 53.8762L29.5654 46.001Z" fill="#B0B3B5"/>
</svg>
