<svg width="199" height="47" viewBox="0 0 199 47" fill="none" xmlns="http://www.w3.org/2000/svg">
<path fill-rule="evenodd" clip-rule="evenodd" d="M19.5994 7.27042e-08H14.7046C12.3507 -5.29464e-06 10.5184 -9.58145e-06 9.04872 0.116519C7.55646 0.234834 6.34401 0.47843 5.25345 1.01766C3.44304 1.91282 1.97113 3.34119 1.04869 5.09804C0.493015 6.15634 0.241993 7.33292 0.120071 8.78103C-9.87947e-06 10.2073 -5.45605e-06 11.9853 7.49205e-08 14.2696V25.9358L6.41356 25.9359V18.6739H14.2533V25.9359L20.6685 25.9358V1.03743C20.6685 0.464475 20.1899 7.27042e-08 19.5994 7.27042e-08ZM8.16471 6.56415C8.44625 6.42494 8.81795 6.32932 9.46491 6.27802C10.1244 6.22574 10.9714 6.22493 12.1865 6.22493H14.2533V12.4495H6.41356V11.8271C6.41356 10.6479 6.41439 9.82595 6.46827 9.18602C6.52113 8.5582 6.61967 8.19749 6.76312 7.92428C7.07061 7.33866 7.56124 6.86254 8.16471 6.56415Z" fill="white"/>
<path fill-rule="evenodd" clip-rule="evenodd" d="M161.677 7.27042e-08H166.572C167.163 7.27042e-08 167.641 0.464475 167.641 1.03743V25.9358L161.226 25.9359V18.6739H153.386V25.9359L146.973 25.9358V14.2696C146.973 11.9857 146.973 10.2071 147.093 8.78103C147.215 7.33292 147.466 6.15634 148.021 5.09804C148.944 3.34119 150.416 1.91282 152.226 1.01766C153.317 0.47843 154.529 0.234834 156.021 0.116519C157.491 -9.58145e-06 159.323 -5.29464e-06 161.677 7.27042e-08ZM156.437 6.27802C155.79 6.32932 155.419 6.42494 155.137 6.56415C154.534 6.86254 154.043 7.33866 153.736 7.92428C153.592 8.19749 153.494 8.5582 153.441 9.18602C153.387 9.82595 153.386 10.6479 153.386 11.8271V12.4495H161.226V6.22493H159.159C157.944 6.22493 157.097 6.22574 156.437 6.27802Z" fill="white"/>
<path d="M184.294 0.000854639H179.399C178.809 0.000854639 178.33 0.46533 178.33 1.03829V25.9367L184.745 25.9362V6.22494H186.812C188.027 6.22494 188.874 6.22575 189.534 6.27803C190.181 6.32933 190.552 6.42495 190.834 6.56416C191.437 6.86255 191.928 7.33867 192.235 7.92429C192.379 8.1975 192.477 8.55821 192.53 9.18603C192.584 9.82596 192.585 10.6479 192.585 11.8271V25.9362L198.999 25.9367V14.2705C198.999 11.9866 198.999 10.2079 198.878 8.78188C198.757 7.33377 198.506 6.15719 197.95 5.09889C197.027 3.34204 195.556 1.91368 193.745 1.01852C192.655 0.479285 191.442 0.235689 189.95 0.117374C188.48 0.000844903 186.648 0.000849198 184.294 0.000854639Z" fill="white"/>
<path fill-rule="evenodd" clip-rule="evenodd" d="M136.839 8.64614C136.839 3.87148 132.851 0.000854565 127.931 0.000854565H117.24C116.65 0.000854565 116.171 0.465329 116.171 1.03829V25.9367L122.585 25.9362V17.2909H124.652C125.867 17.2909 126.714 17.2917 127.373 17.344C128.02 17.3953 128.392 17.4909 128.674 17.6302C129.277 17.9285 129.768 18.4047 130.075 18.9903C130.219 19.2635 130.317 19.6242 130.37 20.252C130.424 20.892 130.425 21.7139 130.425 22.8931V25.9362L136.839 25.9367L136.839 21.2975C136.84 20.207 136.84 19.5237 136.72 18.8805C136.412 17.2345 135.529 15.7419 134.218 14.6549C134.113 14.5672 134.003 14.4829 133.887 14.3995C135.675 13.3347 136.839 11.4221 136.839 9.28052V8.64614ZM128.154 6.22494C128.64 6.22494 129.136 6.38991 129.434 6.77402C130.294 7.88233 130.294 9.40891 129.434 10.5172C129.136 10.9013 128.64 11.0663 128.154 11.0663H122.585V6.22494L128.154 6.22494Z" fill="white"/>
<path d="M105.474 25.9363H89.2873C88.6777 25.9363 88.1836 25.4656 88.1836 24.8848V14.4627C88.1836 12.1475 88.1836 10.3454 88.3075 8.89986C88.4334 7.43215 88.6926 6.23965 89.2662 5.16703C90.2185 3.3864 91.7381 1.93871 93.6071 1.03143C94.733 0.484905 95.9847 0.238012 97.5253 0.118096C99.0426 -9.23872e-06 100.934 -4.80993e-06 103.364 7.27042e-08H105.474L105.474 7.00951H99.5874C98.1478 7.00951 97.6445 7.01854 97.2589 7.11699C96.1163 7.40867 95.2238 8.25894 94.9176 9.3475C94.8467 9.59967 94.82 9.9046 94.8102 10.5144L102.016 10.5144L102.016 15.5618L102.015 16.1218L94.8047 16.1218V19.6267H105.474L105.474 25.9363Z" fill="white"/>
<path d="M45.6124 25.9362V11.8271C45.6124 10.6479 45.6115 9.82596 45.5576 9.18603C45.5048 8.55821 45.4062 8.1975 45.2628 7.92429C44.9553 7.33867 44.4647 6.86255 43.8612 6.56416C43.5797 6.42495 43.208 6.32933 42.561 6.27803C41.9016 6.22575 41.0545 6.22494 39.8394 6.22494H37.7726V25.9362L31.3574 25.9367V1.03829C31.3574 0.46533 31.8361 0.000854639 32.4265 0.000854639H37.3213C39.6752 0.000849198 41.5075 0.000844903 42.9772 0.117374C44.4694 0.235689 45.6819 0.479285 46.7725 1.01852C48.5829 1.91368 50.0548 3.34204 50.9772 5.09889C51.5329 6.15719 51.7839 7.33377 51.9058 8.78188C52.0259 10.208 52.0259 11.9858 52.0259 14.2698V25.9367L45.6124 25.9362Z" fill="white"/>
<path d="M57.7285 0.000476129C57.8307 0.139001 57.8817 0.208264 57.9315 0.27823C58.2614 0.74214 58.5511 1.23337 58.7974 1.74657C58.8345 1.82397 58.8704 1.90218 58.9422 2.0586L69.6161 25.313L69.8445 25.9363H71.2699L71.4984 25.313L82.1722 2.0586C82.2441 1.90216 82.28 1.82394 82.3171 1.74653C82.5634 1.23336 82.8531 0.742156 83.183 0.278272C83.2325 0.20859 83.2834 0.139605 83.3847 0.00221972L83.3853 0.00133819L83.3859 0.000476749L75.8176 0.000437268L70.5566 12.0988L65.2954 0.000432215L57.7285 0.000476129Z" fill="white"/>
<g opacity="0.4">
<path d="M0 46.5424H2.12053V42.9643H3.66807L5.56822 46.5424H7.90913L5.77881 42.6193C6.91988 42.1264 7.55163 41.126 7.55163 39.746C7.55163 37.7401 6.23426 36.4488 3.95701 36.4488H0V46.5424ZM2.12053 41.2492V38.1935H3.55054C4.77486 38.1935 5.36743 38.7406 5.36743 39.746C5.36743 40.7465 4.77486 41.2492 3.56033 41.2492H2.12053Z" fill="white"/>
<path d="M11.7863 46.5424H18.5641V44.7829H13.9068V42.3729H18.1968V40.6134H13.9068V38.2083H18.5446V36.4488H11.7863V46.5424Z" fill="white"/>
<path d="M24.6953 46.5424L25.4397 44.2408H29.0588L29.8032 46.5424H32.0755L28.618 36.4488H25.8853L22.4229 46.5424H24.6953ZM25.9784 42.5749L27.2125 38.7553H27.2909L28.525 42.5749H25.9784Z" fill="white"/>
<path d="M36.0188 46.5424H42.4391V44.7829H38.1393V36.4488H36.0188V46.5424Z" fill="white"/>
<path d="M52.5074 46.5424H59.2853V44.7829H54.628V42.3729H58.918V40.6134H54.628V38.2083H59.2657V36.4488H52.5074V46.5424Z" fill="white"/>
<path d="M69.1286 39.3517H71.161C71.1316 37.5528 69.6624 36.3108 67.4292 36.3108C65.2303 36.3108 63.6191 37.5331 63.6289 39.3665C63.624 40.8549 64.6671 41.7075 66.3616 42.1166L67.4537 42.3926C68.5458 42.6587 69.1531 42.9741 69.158 43.6543C69.1531 44.3936 68.4577 44.8963 67.3802 44.8963C66.2784 44.8963 65.485 44.3837 65.4164 43.3734H63.3645C63.4183 45.5567 64.9708 46.6853 67.4047 46.6853C69.8534 46.6853 71.2932 45.5074 71.2981 43.6592C71.2932 41.9786 70.0346 41.0865 68.2911 40.6922L67.39 40.4754C66.5183 40.2733 65.7886 39.948 65.8033 39.2235C65.8033 38.573 66.3763 38.0949 67.4145 38.0949C68.4283 38.0949 69.0502 38.5582 69.1286 39.3517Z" fill="white"/>
<path d="M75.0785 38.2083H78.1491V46.5424H80.2452V38.2083H83.3158V36.4488H75.0785V38.2083Z" fill="white"/>
<path d="M87.8981 46.5424L88.6425 44.2408H92.2616L93.006 46.5424H95.2784L91.8209 36.4488H89.0882L85.6258 46.5424H87.8981ZM89.1812 42.5749L90.4153 38.7553H90.4937L91.7278 42.5749H89.1812Z" fill="white"/>
<path d="M97.6006 38.2083H100.671V46.5424H102.767V38.2083H105.838V36.4488H97.6006V38.2083Z" fill="white"/>
<path d="M109.931 46.5424H116.708V44.7829H112.051V42.3729H116.341V40.6134H112.051V38.2083H116.689V36.4488H109.931V46.5424Z" fill="white"/>
<path d="M128.767 46.5424L129.512 44.2408H133.131L133.875 46.5424H136.148L132.69 36.4488H129.957L126.495 46.5424H128.767ZM130.051 42.5749L131.285 38.7553H131.363L132.597 42.5749H130.051Z" fill="white"/>
<path d="M146.27 39.7115H148.425C148.151 37.7154 146.402 36.3108 144.135 36.3108C141.485 36.3108 139.443 38.2329 139.443 41.5054C139.443 44.6991 141.353 46.6804 144.179 46.6804C146.711 46.6804 148.518 45.0688 148.518 42.4123V41.1407H144.321V42.7474H146.476C146.446 43.9993 145.599 44.7928 144.189 44.7928C142.597 44.7928 141.593 43.5951 141.593 41.4857C141.593 39.3862 142.636 38.1984 144.169 38.1984C145.261 38.1984 146.001 38.7652 146.27 39.7115Z" fill="white"/>
<path d="M152.847 46.5424H159.625V44.7829H154.967V42.3729H159.257V40.6134H154.967V38.2083H159.605V36.4488H152.847V46.5424Z" fill="white"/>
<path d="M172.416 36.4488H170.305V42.7967H170.217L165.888 36.4488H164.027V46.5424H166.148V40.1895H166.221L170.585 46.5424H172.416V36.4488Z" fill="white"/>
<path d="M185.754 39.9825C185.475 37.6513 183.721 36.3108 181.4 36.3108C178.751 36.3108 176.728 38.1935 176.728 41.4956C176.728 44.7878 178.716 46.6804 181.4 46.6804C183.971 46.6804 185.524 44.9603 185.754 43.1023L183.609 43.0924C183.408 44.1718 182.566 44.7928 181.434 44.7928C179.911 44.7928 178.878 43.6543 178.878 41.4956C178.878 39.396 179.897 38.1984 181.449 38.1984C182.61 38.1984 183.447 38.8736 183.609 39.9825H185.754Z" fill="white"/>
<path d="M189.423 36.4488L193.081 42.9741V46.5424H195.187V42.9741L198.845 36.4488H196.47L194.183 40.7957H194.085L191.798 36.4488H189.423Z" fill="white"/>
</g>
</svg>
