<svg width="18" height="13" viewBox="0 0 18 13" fill="none" xmlns="http://www.w3.org/2000/svg">
<path d="M7.68472 1.89884C8.12661 1.26089 8.34756 0.94191 8.62351 0.829766C8.86492 0.731662 9.13508 0.731662 9.37649 0.829766C9.65244 0.94191 9.87339 1.26089 10.3153 1.89884L16.2606 10.482C16.824 11.2953 17.1057 11.702 17.0897 12.0402C17.0758 12.3348 16.9326 12.6082 16.6984 12.7874C16.4295 12.9931 15.9348 12.9931 14.9454 12.9931H3.05464C2.06524 12.9931 1.57054 12.9931 1.30159 12.7874C1.06737 12.6082 0.924169 12.3348 0.91026 12.0402C0.89429 11.702 1.17598 11.2953 1.73936 10.482L7.68472 1.89884Z" fill="white"/>
</svg>
