<svg width="12" height="12" viewBox="0 0 12 12" fill="none" xmlns="http://www.w3.org/2000/svg">
<path d="M11.6007 0.0157159L0.207619 3.80445C0.148649 3.82396 0.0971146 3.86107 0.0600003 3.91078C0.022886 3.96049 0.00198649 4.02037 0.000134817 4.08233C-0.00171686 4.14428 0.0155689 4.20531 0.0496487 4.25713C0.0837285 4.30895 0.132954 4.34907 0.190655 4.37204L5.48156 6.48341L8.16245 11.8329C8.18973 11.8873 8.23287 11.9323 8.28621 11.9619C8.33955 11.9915 8.40061 12.0043 8.46139 11.9987C8.52216 11.9931 8.57982 11.9693 8.6268 11.9304C8.67378 11.8915 8.7079 11.8394 8.72468 11.7809L11.9884 0.385039C12.0035 0.332098 12.0039 0.276042 11.9894 0.222923C11.9749 0.169803 11.9462 0.121638 11.9063 0.0836254C11.8663 0.0456128 11.8168 0.0191971 11.7629 0.00722914C11.7091 -0.00473882 11.653 -0.00180439 11.6007 0.0157159V0.0157159Z" fill="#909499"/>
</svg>
