<svg width="116" height="27" viewBox="0 0 116 27" fill="none" xmlns="http://www.w3.org/2000/svg">
<path d="M114 15H112.5L111.5 4L108.5 3H106.5V15H104V5V1H106L109.5 0.5L113 1.5L114 3.5V5.5V15Z" fill="#161718"/>
<path fill-rule="evenodd" clip-rule="evenodd" d="M106.585 0.000488324H103.754C103.412 0.000488324 103.135 0.269113 103.135 0.600477V15.0002H104.372V1.20047H106.557C107.952 1.20047 108.961 1.20093 109.755 1.26387C110.542 1.32623 111.062 1.44693 111.489 1.65823C112.304 2.06089 112.966 2.7034 113.381 3.49366C113.598 3.90836 113.723 4.41333 113.787 5.17662C113.852 5.94692 113.852 6.92633 113.852 8.28034V15.0002H115.089V8.25318C115.089 6.93206 115.089 5.90376 115.019 5.0789C114.949 4.24141 114.804 3.56094 114.482 2.94888C113.949 1.93283 113.098 1.10675 112.051 0.589042C111.42 0.277183 110.719 0.136302 109.856 0.0678758C109.006 0.000482693 107.946 0.000485177 106.585 0.000488324Z" fill="#161718"/>
<path fill-rule="evenodd" clip-rule="evenodd" d="M108.067 2.40015L106.227 2.40015C105.886 2.40015 105.609 2.66877 105.609 3.00014V14.9999H106.846V3.60012H108.041C108.744 3.60012 109.234 3.60059 109.615 3.63083C109.989 3.6605 110.204 3.7158 110.367 3.79631C110.716 3.96888 111 4.24424 111.177 4.58292C111.26 4.74093 111.317 4.94954 111.348 5.31264C111.379 5.68274 111.38 6.15811 111.38 6.84007V14.9999H112.616L112.616 6.81438C112.616 6.16412 112.616 5.63964 112.58 5.21492C112.544 4.77762 112.466 4.39351 112.279 4.03814C111.983 3.47367 111.51 3.01474 110.928 2.72712C110.562 2.54605 110.166 2.47057 109.716 2.43484C109.278 2.40014 108.737 2.40014 108.067 2.40015Z" fill="#161718"/>
<path fill-rule="evenodd" clip-rule="evenodd" d="M93.5043 4.29172e-08H96.3351C96.6766 4.29172e-08 96.9534 0.268624 96.9534 0.599989V14.9997H95.7168V1.19998H93.5323C92.137 1.19998 91.1277 1.20044 90.3339 1.26338C89.5474 1.32574 89.027 1.44644 88.5997 1.65774C87.7853 2.0604 87.1232 2.70291 86.7083 3.49318C86.4905 3.90788 86.3662 4.41284 86.3019 5.17613C86.237 5.94643 86.2366 6.92585 86.2366 8.27985V14.9997H85V8.2527C85 6.93157 85 5.90327 85.0694 5.07842C85.14 4.24092 85.2851 3.56045 85.6065 2.9484C86.14 1.93234 86.9912 1.10626 88.0383 0.588554C88.669 0.276695 89.3702 0.135814 90.2332 0.0673875C91.0832 -5.58485e-06 92.1429 -3.10415e-06 93.5043 4.29172e-08Z" fill="#161718"/>
<path fill-rule="evenodd" clip-rule="evenodd" d="M88 15H85.5V5.5L86.5 3.5L87.5 1.5L91 0.5L94.5 1H96.5V5V15H94V10.5L91 10L88 10.5V15ZM88 7.5L88.5 6V4.5L89.5 3.5H90.5L92 3L93.5 3.5V5V7V8H91L89.4442 7.98139L88 7.5Z" fill="#161718"/>
<path fill-rule="evenodd" clip-rule="evenodd" d="M92.0215 2.40015L93.8615 2.40015C94.203 2.40015 94.4798 2.66877 94.4798 3.00014V7.80005C94.4798 8.13141 94.203 8.40004 93.8615 8.40004H88.0909C87.7495 8.40004 87.4727 8.13141 87.4727 7.80005L87.4727 6.81438C87.4727 6.16412 87.4726 5.63964 87.5084 5.21492C87.5452 4.77762 87.623 4.39351 87.8096 4.03815C88.106 3.47367 88.5789 3.01474 89.1606 2.72712C89.5268 2.54605 89.9226 2.47057 90.3732 2.43484C90.8109 2.40014 91.3514 2.40014 92.0215 2.40015ZM90.4739 3.63083C90.0998 3.6605 89.8848 3.7158 89.722 3.79631C89.373 3.96888 89.0892 4.24424 88.9114 4.58292C88.8284 4.74093 88.7714 4.94954 88.7409 5.31264C88.7097 5.68274 88.7092 6.15811 88.7092 6.84007V7.20006H93.2433V3.60012H92.0479C91.3452 3.60012 90.8553 3.60059 90.4739 3.63083Z" fill="#161718"/>
<path fill-rule="evenodd" clip-rule="evenodd" d="M87.4727 10.1998C87.4727 9.86848 87.7495 9.59985 88.0909 9.59985H93.8615C94.203 9.59985 94.4798 9.86848 94.4798 10.1998V14.9998H93.2433V10.7998H88.7092V14.9998H87.4727V10.1998Z" fill="#161718"/>
<path fill-rule="evenodd" clip-rule="evenodd" d="M79.1396 5.0004C79.1396 2.23902 76.8329 0.000488281 73.9873 0.000488281H67.8045C67.463 0.000488281 67.1862 0.269112 67.1862 0.600477V15.0002H68.4228V1.20047H73.9873C76.1499 1.20047 77.9031 2.90175 77.9031 5.0004V5.36728C77.9031 6.478 77.0756 7.42591 75.9466 7.60851V7.60851C75.8307 7.60851 75.7367 7.70248 75.7367 7.8184V8.06021C75.7367 8.46708 75.9575 8.83938 76.3081 9.04575C76.5516 9.18905 76.6952 9.28383 76.8204 9.38766C77.3617 9.83668 77.7266 10.4533 77.8536 11.1333C77.9007 11.3859 77.9031 11.6666 77.9031 12.3787V15.0002H79.1396V12.3787C79.1396 12.358 79.1396 12.3375 79.1396 12.3172C79.1397 11.6865 79.1398 11.2913 79.0703 10.9194C78.8926 9.96739 78.3817 9.10415 77.6239 8.47553C77.5627 8.42479 77.4992 8.37604 77.4319 8.32782C78.4663 7.71197 79.1396 6.60586 79.1396 5.36728V5.0004Z" fill="#161718"/>
<path fill-rule="evenodd" clip-rule="evenodd" d="M70.5 15H67.5L68 0.5H71L74.5 1L77 1.5L78.5 5L78 7.5L76.5 8.5L78.5 11.5V15H76V12L75 10L73 9L70.5 9.5L70 11.5L70.5 15ZM75.5 6.5L76 5V3.5L75 2.5H74L72.5 3H70.5V4.5V6.5V7.5L73.5 7L75.0558 6.98139L75.5 6.5Z" fill="#161718"/>
<path fill-rule="evenodd" clip-rule="evenodd" d="M69.6592 3.00014L69.6592 7.00006C69.6592 7.15919 69.7243 7.3118 69.8403 7.42432C69.9562 7.53684 70.1135 7.60005 70.2775 7.60005L74.8115 7.60005V7.60005C74.9452 7.60005 75.0752 7.55623 75.1817 7.4753L75.2487 7.42432C75.2609 7.41246 75.273 7.40077 75.2848 7.38926C75.54 7.14169 75.7139 6.97306 75.8449 6.80413C76.6735 5.73583 76.6735 4.26437 75.8449 3.19607C75.7139 3.02713 75.54 2.8585 75.2848 2.61093C75.273 2.59942 75.2609 2.58774 75.2487 2.57588L75.1817 2.5249C75.0752 2.44397 74.9452 2.40015 74.8115 2.40015V2.40015L70.2775 2.40015C70.1135 2.40015 69.9562 2.46336 69.8403 2.57588C69.7243 2.6884 69.6592 2.84101 69.6592 3.00014ZM74.1163 3.60013C74.3974 3.60013 74.6846 3.69553 74.8569 3.91768V3.91768C75.354 4.55866 75.354 5.44154 74.8569 6.08252V6.08252C74.6846 6.30466 74.3974 6.40007 74.1163 6.40007L70.8957 6.40007L70.8957 3.60012L74.1163 3.60013Z" fill="#161718"/>
<path fill-rule="evenodd" clip-rule="evenodd" d="M69.6592 9.40004L69.6592 14.9999L70.8957 14.9999L70.8957 10L72.0911 10C72.7938 10 73.2837 10.0005 73.6651 10.0307C74.0392 10.0604 74.2542 10.1157 74.417 10.1962C74.766 10.3688 75.0498 10.6441 75.2276 10.9828C75.3106 11.1408 75.3676 11.3494 75.3981 11.7125C75.4293 12.0826 75.4298 12.558 75.4298 13.24L75.4298 14.9999L76.6663 14.9999L76.6663 13.2143C76.6664 12.564 76.6664 12.0395 76.6306 11.6148C76.5938 11.1775 76.516 10.7934 76.3294 10.438C76.033 9.87357 75.5601 9.41464 74.9784 9.12702C74.6122 8.94595 74.2164 8.87047 73.7658 8.83474C73.3281 8.80004 72.7876 8.80004 72.1175 8.80005L70.2775 8.80005C70.1135 8.80005 69.9562 8.86326 69.8403 8.97578C69.7243 9.0883 69.6592 9.24091 69.6592 9.40004Z" fill="#161718"/>
<path d="M61 3.5V0.5H59.5L55.5 1L53.5 1.5L52 4V6L51.5 14.5H61V12L54.5 12.5V10.5V9H59V7H54.5L54 6.5L54.5 5L56 3.5H61Z" fill="#161718"/>
<path fill-rule="evenodd" clip-rule="evenodd" d="M51 8.36438L51 14.3919C51 14.7277 51.2858 15 51.6383 15L61 15L61 13.7838L52.2766 13.7838L52.2766 8.39189C52.2766 7.01957 52.2771 6.0269 52.344 5.24618C52.4104 4.47256 52.5388 3.96076 52.7636 3.54045C53.192 2.73949 53.8755 2.08828 54.7162 1.68018C55.1574 1.46602 55.6946 1.34368 56.5066 1.28048C57.3261 1.21669 58.368 1.21622 59.8085 1.21622L61 1.21622L61 5.28939e-07L59.7796 4.27267e-07C58.3741 -2.82382e-06 57.2802 -5.38793e-06 56.4027 0.0682996C55.5117 0.137652 54.7878 0.280439 54.1366 0.596518C53.0557 1.12123 52.1769 1.95849 51.6261 2.9883C51.2944 3.60864 51.1445 4.29831 51.0717 5.14714C51 5.98315 51 7.02537 51 8.36438Z" fill="#161718"/>
<path fill-rule="evenodd" clip-rule="evenodd" d="M53.5527 8.71577L53.5527 11.959C53.5527 12.1203 53.62 12.275 53.7397 12.389C53.8594 12.5031 54.0217 12.5671 54.191 12.5671L60.9995 12.5671L60.9995 11.3509L54.8293 11.3509L54.8293 9.32388L58.9995 9.32388L58.9995 8.10767L54.191 8.10767C54.0217 8.10767 53.8594 8.17173 53.7397 8.28578C53.62 8.39982 53.5527 8.55449 53.5527 8.71577Z" fill="#161718"/>
<path fill-rule="evenodd" clip-rule="evenodd" d="M54.8325 6.0809C54.8382 5.72822 54.8536 5.55187 54.8946 5.40603C55.0717 4.77647 55.5878 4.28473 56.2486 4.11604C56.4717 4.0591 56.7628 4.05388 57.5953 4.05388L60.9996 4.05388L60.9996 2.83766L57.5953 2.83766C57.562 2.83766 57.5291 2.83765 57.4968 2.83764C56.8006 2.83742 56.3256 2.83727 55.9182 2.94126C54.8169 3.22241 53.9566 4.04198 53.6615 5.09125C53.5524 5.47935 53.5525 5.93191 53.5528 6.59512C53.5528 6.62596 53.5528 6.65725 53.5528 6.68901L53.5528 7.29712L54.1911 7.29712L58.9996 7.29712L58.9996 6.0809L54.8325 6.0809Z" fill="#161718"/>
<path d="M29 15H27.5L26.5 4L23.5 3H21.5V15H19V5V1H21L24.5 0.5L28 1.5L29 3.5V5.5V15Z" fill="#161718"/>
<path fill-rule="evenodd" clip-rule="evenodd" d="M21.5846 0.000488324H18.7537C18.4123 0.000488324 18.1355 0.269113 18.1355 0.600477V15.0002H19.372V1.20047H21.5566C22.9519 1.20047 23.9612 1.20093 24.7549 1.26387C25.5415 1.32623 26.0619 1.44693 26.4892 1.65823C27.3036 2.06089 27.9657 2.7034 28.3806 3.49366C28.5983 3.90836 28.7227 4.41333 28.787 5.17662C28.8518 5.94692 28.8523 6.92633 28.8523 8.28034V15.0002H30.0889V8.25318C30.0889 6.93206 30.0889 5.90376 30.0194 5.0789C29.9489 4.24141 29.8037 3.56094 29.4824 2.94888C28.9489 1.93283 28.0976 1.10675 27.0506 0.589042C26.4199 0.277183 25.7187 0.136302 24.8556 0.0678758C24.0056 0.000482693 22.946 0.000485177 21.5846 0.000488324Z" fill="#161718"/>
<path fill-rule="evenodd" clip-rule="evenodd" d="M23.0674 2.40015L21.2273 2.40015C20.8859 2.40015 20.609 2.66877 20.609 3.00014V14.9999H21.8456V3.60012H23.0409C23.7437 3.60012 24.2336 3.60059 24.6149 3.63083C24.9891 3.6605 25.2041 3.7158 25.3669 3.79631C25.7159 3.96888 25.9997 4.24424 26.1775 4.58292C26.2605 4.74093 26.3174 4.94954 26.348 5.31264C26.3792 5.68274 26.3797 6.15811 26.3797 6.84007V14.9999H27.6162L27.6162 6.81438C27.6162 6.16412 27.6162 5.63964 27.5805 5.21492C27.5436 4.77762 27.4659 4.39351 27.2793 4.03814C26.9829 3.47367 26.51 3.01474 25.9283 2.72712C25.5621 2.54605 25.1663 2.47057 24.7156 2.43484C24.278 2.40014 23.7375 2.40014 23.0674 2.40015Z" fill="#161718"/>
<path fill-rule="evenodd" clip-rule="evenodd" d="M8.50428 4.29172e-08H11.3351C11.6766 4.29172e-08 11.9534 0.268624 11.9534 0.599989V14.9997H10.7168V1.19998H8.53226C7.13698 1.19998 6.12771 1.20044 5.33393 1.26338C4.54737 1.32574 4.02701 1.44644 3.59966 1.65774C2.78531 2.0604 2.12321 2.70291 1.70828 3.49318C1.49054 3.90788 1.36616 4.41284 1.30189 5.17613C1.23704 5.94643 1.23656 6.92585 1.23656 8.27985V14.9997H4.42255e-08V8.2527C-3.19878e-06 6.93157 -5.75511e-06 5.90327 0.0694418 5.07842C0.139954 4.24092 0.28513 3.56045 0.606496 2.9484C1.13998 1.93234 1.99125 1.10626 3.03828 0.588554C3.66899 0.276695 4.3702 0.135814 5.23323 0.0673875C6.08323 -5.58485e-06 7.14288 -3.10415e-06 8.50428 4.29172e-08Z" fill="#161718"/>
<path fill-rule="evenodd" clip-rule="evenodd" d="M3 15H0.5V5.5L1.5 3.5L2.5 1.5L6 0.5L9.5 1H11.5V5V15H9V10.5L6 10L3 10.5V15ZM3 7.5L3.5 6V4.5L4.5 3.5H5.5L7 3L8.5 3.5V5V7V8H6L4.44417 7.98139L3 7.5Z" fill="#161718"/>
<path fill-rule="evenodd" clip-rule="evenodd" d="M7.02146 2.40015L8.86155 2.40015C9.20301 2.40015 9.47982 2.66877 9.47982 3.00014V7.80005C9.47982 8.13141 9.20301 8.40004 8.86155 8.40004H3.09094C2.74947 8.40004 2.47266 8.13141 2.47266 7.80005L2.47266 6.81438C2.47265 6.16412 2.47265 5.63964 2.5084 5.21492C2.54522 4.77762 2.62301 4.39351 2.8096 4.03815C3.10598 3.47367 3.57891 3.01474 4.16059 2.72712C4.52679 2.54605 4.92261 2.47057 5.37324 2.43484C5.81091 2.40014 6.35138 2.40014 7.02146 2.40015ZM5.47393 3.63083C5.09977 3.6605 4.8848 3.7158 4.72198 3.79631C4.37297 3.96888 4.08921 4.24424 3.91138 4.58292C3.82842 4.74093 3.77143 4.94954 3.74086 5.31264C3.7097 5.68274 3.70922 6.15811 3.70922 6.84007V7.20006H8.24327V3.60012H7.04793C6.34519 3.60012 5.85531 3.60059 5.47393 3.63083Z" fill="#161718"/>
<path fill-rule="evenodd" clip-rule="evenodd" d="M2.47266 10.1998C2.47266 9.86848 2.74947 9.59985 3.09094 9.59985H8.86155C9.20301 9.59985 9.47982 9.86848 9.47982 10.1998V14.9998H8.24327V10.7998H3.70922V14.9998H2.47266V10.1998Z" fill="#161718"/>
<path d="M34 0H37L41 8.5L44.5 0H47.5L41 14.5L34 0Z" fill="#161718"/>
<path fill-rule="evenodd" clip-rule="evenodd" d="M40.8062 15L40.394 15L40.2619 14.6395L34.0888 1.19057C33.8962 0.770843 33.6609 0.371991 33.3869 0.000275253V0.000275253L34.8877 0.000274432L40.8062 12.8946L46.7248 0.000275479L48.2256 0.000275612V0.000275612C47.9515 0.371991 47.7163 0.770844 47.5237 1.19057L41.3506 14.6395L41.2184 15L40.8062 15Z" fill="#161718"/>
<path fill-rule="evenodd" clip-rule="evenodd" d="M40.8059 9.16675C40.5751 9.16675 40.3651 9.02194 40.2663 8.79481L36.684 0.416909L36.4779 0.00025013L37.7631 0.000250244L40.8059 6.9972L43.8485 0.000253166L45.1338 0.000250101L44.9277 0.557059L41.3454 8.7948C41.2467 9.02193 41.0366 9.16675 40.8059 9.16675Z" fill="#161718"/>
<path d="M0 26.9173H1.22639V24.848H2.12139L3.22032 26.9173H4.57416L3.34211 24.6485C4.00204 24.3634 4.36741 23.7848 4.36741 22.9867C4.36741 21.8266 3.60552 21.0798 2.2885 21.0798H0V26.9173ZM1.22639 23.8561V22.0888H2.05342C2.76149 22.0888 3.1042 22.4052 3.1042 22.9867C3.1042 23.5653 2.76149 23.8561 2.05908 23.8561H1.22639Z" fill="#AAAEB3"/>
<path d="M6.81648 26.9173H10.7364V25.8998H8.04286V24.5059H10.524V23.4884H8.04286V22.0974H10.7251V21.0798H6.81648V26.9173Z" fill="#AAAEB3"/>
<path d="M14.2823 26.9173L14.7128 25.5862H16.8058L17.2364 26.9173H18.5505L16.5509 21.0798H14.9705L12.9681 26.9173H14.2823ZM15.0243 24.6228L15.7381 22.4138H15.7834L16.4971 24.6228H15.0243Z" fill="#AAAEB3"/>
<path d="M20.8311 26.9173H24.5442V25.8998H22.0575V21.0798H20.8311V26.9173Z" fill="#AAAEB3"/>
<path d="M30.3671 26.9173H34.287V25.8998H31.5935V24.5059H34.0746V23.4884H31.5935V22.0974H34.2757V21.0798H30.3671V26.9173Z" fill="#AAAEB3"/>
<path d="M39.9798 22.7587H41.1552C41.1382 21.7183 40.2885 21 38.997 21C37.7253 21 36.7935 21.7069 36.7991 22.7672C36.7963 23.628 37.3996 24.1211 38.3795 24.3577L39.0111 24.5173C39.6428 24.6713 39.994 24.8537 39.9968 25.247C39.994 25.6746 39.5918 25.9653 38.9687 25.9653C38.3314 25.9653 37.8726 25.6689 37.8329 25.0846H36.6462C36.6773 26.3473 37.5752 27 38.9828 27C40.399 27 41.2317 26.3188 41.2345 25.2499C41.2317 24.2779 40.5038 23.762 39.4955 23.534L38.9743 23.4086C38.4702 23.2917 38.0482 23.1036 38.0567 22.6846C38.0567 22.3083 38.388 22.0318 38.9885 22.0318C39.5748 22.0318 39.9345 22.2998 39.9798 22.7587Z" fill="#AAAEB3"/>
<path d="M43.4209 22.0974H45.1967V26.9173H46.409V22.0974H48.1848V21.0798H43.4209V22.0974Z" fill="#AAAEB3"/>
<path d="M50.835 26.9173L51.2655 25.5862H53.3586L53.7891 26.9173H55.1032L53.1036 21.0798H51.5232L49.5208 26.9173H50.835ZM51.577 24.6228L52.2908 22.4138H52.3361L53.0498 24.6228H51.577Z" fill="#AAAEB3"/>
<path d="M56.4463 22.0974H58.2222V26.9173H59.4344V22.0974H61.2102V21.0798H56.4463V22.0974Z" fill="#AAAEB3"/>
<path d="M63.5772 26.9173H67.4971V25.8998H64.8036V24.5059H67.2847V23.4884H64.8036V22.0974H67.4857V21.0798H63.5772V26.9173Z" fill="#AAAEB3"/>
<path d="M74.4713 26.9173L74.9018 25.5862H76.9949L77.4254 26.9173H78.7396L76.74 21.0798H75.1595L73.1571 26.9173H74.4713ZM75.2134 24.6228L75.9271 22.4138H75.9724L76.6861 24.6228H75.2134Z" fill="#AAAEB3"/>
<path d="M84.5938 22.9667H85.84C85.6814 21.8124 84.6702 21 83.3589 21C81.8266 21 80.6455 22.1116 80.6455 24.0043C80.6455 25.8513 81.7501 26.9971 83.3844 26.9971C84.8487 26.9971 85.8938 26.0651 85.8938 24.5287V23.7933H83.4665V24.7226H84.7127C84.6957 25.4466 84.2057 25.9055 83.39 25.9055C82.4695 25.9055 81.8889 25.2128 81.8889 23.9929C81.8889 22.7786 82.4922 22.0917 83.3787 22.0917C84.0103 22.0917 84.438 22.4195 84.5938 22.9667Z" fill="#AAAEB3"/>
<path d="M88.3974 26.9173H92.3173V25.8998H89.6238V24.5059H92.1049V23.4884H89.6238V22.0974H92.306V21.0798H88.3974V26.9173Z" fill="#AAAEB3"/>
<path d="M99.7151 21.0798H98.4944V24.7511H98.4434L95.9396 21.0798H94.8634V26.9173H96.0898V23.2432H96.1322L98.6558 26.9173H99.7151V21.0798Z" fill="#AAAEB3"/>
<path d="M107.429 23.1235C107.267 21.7753 106.253 21 104.911 21C103.379 21 102.209 22.0888 102.209 23.9986C102.209 25.9026 103.359 26.9971 104.911 26.9971C106.398 26.9971 107.296 26.0024 107.429 24.9278L106.188 24.9221C106.072 25.5463 105.585 25.9055 104.931 25.9055C104.05 25.9055 103.452 25.247 103.452 23.9986C103.452 22.7843 104.041 22.0917 104.939 22.0917C105.61 22.0917 106.095 22.4822 106.188 23.1235H107.429Z" fill="#AAAEB3"/>
<path d="M109.551 21.0798L111.666 24.8537V26.9173H112.884V24.8537L115 21.0798H113.626L112.304 23.5938H112.247L110.924 21.0798H109.551Z" fill="#AAAEB3"/>
</svg>
