<svg width="16" height="16" viewBox="0 0 16 16" fill="none" xmlns="http://www.w3.org/2000/svg">
<path d="M5.63498 0C3.07925 0 1 1.95472 1 4.35735V16H2.71919V4.35735C2.71919 2.84591 4.02722 1.61625 5.63498 1.61625C6.80416 1.61625 7.81426 2.26685 8.27863 3.20291C8.64262 3.12438 9.0214 3.08282 9.41035 3.08282C9.63762 3.08282 9.86136 3.09722 10.0808 3.12469C9.51376 1.32047 7.73547 0 5.63498 0Z" fill="var(--actual-card__ptags)"/>
<path d="M9.41073 4.05255C7.19027 4.05255 5.38379 5.75084 5.38379 7.83831V8.32318H13.4377V7.83831C13.4377 5.75084 11.6312 4.05255 9.41073 4.05255Z" fill="var(--actual-card__ptags)"/>
<path d="M5.2754 8.91815L5.19147 9.2929L3.82031 15.4152L4.82971 15.615L6.2456 9.2929L6.28476 9.11793L5.2754 8.91815Z" fill="var(--actual-card__ptags)"/>
<path d="M7.10725 9.2929L7.08301 9.29053L7.08278 9.2929L6.35547 15.7876L7.38132 15.8892L8.10886 9.39206L7.10725 9.2929Z" fill="var(--actual-card__ptags)"/>
<path d="M9.92606 9.50281H8.89453V15.9998H9.92606V9.50281Z" fill="var(--actual-card__ptags)"/>
<path d="M11.7381 9.2929L11.7378 9.29053L11.7135 9.2929L10.7119 9.39206L11.4395 15.8892L12.4653 15.7876L11.7381 9.2929Z" fill="var(--actual-card__ptags)"/>
<path d="M13.6285 9.2929L13.5445 8.91815L12.5352 9.11793L12.5743 9.2929L13.9902 15.615L14.9997 15.4152L13.6285 9.2929Z" fill="var(--actual-card__ptags)"/>
</svg>
