<svg width="48" height="48" viewBox="0 0 48 48" fill="none" xmlns="http://www.w3.org/2000/svg">
<rect width="48" height="48" rx="24" fill="#F2F3F5"/>
<path d="M20.5008 24C20.5008 22.0671 22.0674 20.4997 24.0004 20.4997C25.9334 20.4997 27.5008 22.0671 27.5008 24C27.5008 25.9329 25.9334 27.5003 24.0004 27.5003C22.0674 27.5003 20.5008 25.9329 20.5008 24ZM18.6086 24C18.6086 26.9778 21.0225 29.3916 24.0004 29.3916C26.9783 29.3916 29.3923 26.9778 29.3923 24C29.3923 21.0222 26.9783 18.6084 24.0004 18.6084C21.0225 18.6084 18.6086 21.0222 18.6086 24ZM28.3457 18.3946C28.3456 18.6438 28.4194 18.8874 28.5577 19.0947C28.6961 19.302 28.8928 19.4635 29.123 19.559C29.3533 19.6545 29.6066 19.6795 29.851 19.631C30.0955 19.5825 30.3201 19.4626 30.4963 19.2864C30.6726 19.1103 30.7927 18.8858 30.8415 18.6414C30.8902 18.397 30.8653 18.1437 30.77 17.9134C30.6748 17.6831 30.5133 17.4863 30.3062 17.3477C30.099 17.2092 29.8554 17.1352 29.6062 17.1351H29.6057C29.2717 17.1353 28.9513 17.268 28.7151 17.5041C28.4788 17.7403 28.346 18.0606 28.3457 18.3946ZM19.7583 32.5467C18.7345 32.5001 18.1781 32.3296 17.8083 32.1855C17.318 31.9947 16.9682 31.7674 16.6005 31.4001C16.2327 31.0329 16.0051 30.6835 15.815 30.1932C15.6709 29.8236 15.5004 29.2671 15.4538 28.2433C15.4029 27.1366 15.3928 26.8041 15.3928 24.0001C15.3928 21.1961 15.4038 20.8645 15.4538 19.7568C15.5005 18.7331 15.6722 18.1776 15.815 17.8069C16.0059 17.3167 16.2332 16.9669 16.6005 16.5992C16.9677 16.2314 17.3172 16.0038 17.8083 15.8138C18.1779 15.6696 18.7345 15.4991 19.7583 15.4526C20.8651 15.4017 21.1976 15.3915 24.0004 15.3915C26.8033 15.3915 27.1361 15.4025 28.2438 15.4526C29.2676 15.4992 29.8231 15.671 30.1938 15.8138C30.6841 16.0038 31.0339 16.2319 31.4016 16.5992C31.7694 16.9664 31.9962 17.3167 32.1871 17.8069C32.3312 18.1765 32.5017 18.7331 32.5483 19.7568C32.5992 20.8645 32.6093 21.1961 32.6093 24.0001C32.6093 26.8041 32.5992 27.1356 32.5483 28.2433C32.5016 29.2671 32.3303 29.8235 32.1871 30.1932C31.9962 30.6835 31.7689 31.0332 31.4016 31.4001C31.0344 31.7671 30.6841 31.9947 30.1938 32.1855C29.8242 32.3297 29.2676 32.5002 28.2438 32.5467C27.137 32.5977 26.8045 32.6078 24.0004 32.6078C21.1963 32.6078 20.8647 32.5977 19.7583 32.5467ZM19.6713 13.5636C18.5535 13.6145 17.7896 13.7917 17.1226 14.0513C16.4317 14.3193 15.8469 14.6789 15.2625 15.2624C14.6781 15.8459 14.3194 16.4316 14.0513 17.1224C13.7917 17.7899 13.6145 18.5533 13.5636 19.6711C13.5118 20.7906 13.5 21.1485 13.5 24C13.5 26.8515 13.5118 27.2094 13.5636 28.3289C13.6145 29.4468 13.7917 30.2101 14.0513 30.8776C14.3194 31.568 14.6781 32.1544 15.2625 32.7376C15.8468 33.3208 16.4317 33.6799 17.1226 33.9487C17.7909 34.2083 18.5535 34.3855 19.6713 34.4364C20.7915 34.4873 21.1488 34.5 24.0004 34.5C26.852 34.5 27.2099 34.4882 28.3295 34.4364C29.4474 34.3855 30.2108 34.2083 30.8783 33.9487C31.5687 33.6799 32.154 33.3211 32.7384 32.7376C33.3228 32.1541 33.6807 31.568 33.9495 30.8776C34.2091 30.2101 34.3872 29.4467 34.4372 28.3289C34.4882 27.2085 34.5 26.8515 34.5 24C34.5 21.1485 34.4882 20.7906 34.4372 19.6711C34.3863 18.5532 34.2091 17.7895 33.9495 17.1224C33.6807 16.432 33.3219 15.8468 32.7384 15.2624C32.1549 14.678 31.5687 14.3193 30.8791 14.0513C30.2108 13.7917 29.4474 13.6137 28.3304 13.5636C27.2108 13.5127 26.8528 13.5 24.0013 13.5C21.1497 13.5 20.7915 13.5118 19.6713 13.5636Z" fill="#161718"/>
</svg>
