<svg width="48" height="48" viewBox="0 0 48 48" fill="none" xmlns="http://www.w3.org/2000/svg">
<rect width="48" height="48" rx="24" fill="#F2F3F5"/>
<path fill-rule="evenodd" clip-rule="evenodd" d="M29.4413 32.8522C30.6994 33.3988 31.1712 32.2534 31.1712 32.2534L34.5 15.6453C34.4738 14.526 32.9535 15.2028 32.9535 15.2028L14.3175 22.4656C14.3175 22.4656 13.4263 22.778 13.5049 23.3246C13.5835 23.8713 14.2912 24.1316 14.2912 24.1316L18.983 25.6935C18.983 25.6935 20.3984 30.3011 20.6868 31.1861C20.9489 32.0452 21.1848 32.0712 21.1848 32.0712C21.4469 32.1753 21.6828 31.9931 21.6828 31.9931L24.7233 29.2598L29.4413 32.8522ZM30.2531 18.5869C30.2531 18.5869 30.9084 18.1964 30.8822 18.5869C30.8822 18.5869 30.9871 18.6389 30.6463 19.0034C30.3318 19.3158 22.914 25.9278 21.918 26.8128C21.8394 26.8649 21.787 26.943 21.787 27.0471L21.4986 29.4941C21.4462 29.7544 21.1055 29.7804 21.0268 29.5462L19.7949 25.5373C19.7425 25.3811 19.7949 25.1989 19.9522 25.0948L30.2531 18.5869Z" fill="#161718"/>
</svg>
