<svg width="48" height="48" viewBox="0 0 48 48" fill="none" xmlns="http://www.w3.org/2000/svg">
<rect width="48" height="48" rx="24" fill="#F2F3F5"/>
<path fill-rule="evenodd" clip-rule="evenodd" d="M35.4493 17.4651C35.6163 16.9088 35.4494 16.5 34.6553 16.5H32.0297C31.362 16.5 31.0544 16.8531 30.8875 17.2427C30.8875 17.2427 29.5522 20.4971 27.6607 22.6111C27.0487 23.2231 26.7706 23.4176 26.4367 23.4176C26.2698 23.4176 26.0283 23.2231 26.0283 22.6668V17.4651C26.0283 16.7974 25.8345 16.5 25.2781 16.5H21.1521C20.735 16.5 20.4841 16.8098 20.4841 17.1035C20.4841 17.7365 21.4297 17.8824 21.5272 19.6626V23.5291C21.5272 24.3768 21.3742 24.5306 21.0404 24.5306C20.1503 24.5306 17.9853 21.2614 16.701 17.5208C16.4493 16.7937 16.1969 16.5 15.5258 16.5H12.9002C12.15 16.5 12 16.8531 12 17.2427C12 17.9381 12.8903 21.3874 16.1447 25.9492C18.3146 29.0643 21.3712 30.7533 24.1528 30.7533C25.822 30.7533 26.0283 30.3782 26.0283 29.7322V27.3775C26.0283 26.6274 26.1864 26.4777 26.7147 26.4777C27.1044 26.4777 27.7719 26.6724 29.3298 28.1744C31.11 29.9544 31.4033 30.7533 32.4048 30.7533H35.0304C35.7806 30.7533 36.1556 30.3782 35.9392 29.638C35.7025 28.9002 34.8526 27.8301 33.7247 26.5612C33.1127 25.8378 32.1947 25.0589 31.9168 24.6696C31.5272 24.1689 31.6385 23.9464 31.9168 23.5016C31.9168 23.5016 35.1155 18.9953 35.4493 17.4653V17.4651Z" fill="#161718"/>
</svg>
