<svg width="48" height="48" viewBox="0 0 48 48" fill="none" xmlns="http://www.w3.org/2000/svg">
<rect width="48" height="48" rx="24" fill="#F2F3F5"/>
<path d="M32.4591 19.8684C32.4591 20.0543 32.4591 20.2403 32.4591 20.3998C32.4591 25.8998 28.2713 32.25 20.6378 32.25C18.2788 32.25 16.1054 31.5592 14.25 30.3901C14.5681 30.4167 14.9126 30.4432 15.2307 30.4432C17.1656 30.4432 18.9679 29.779 20.3992 28.663C18.5704 28.6365 17.033 27.4143 16.5295 25.7669C16.7945 25.82 17.033 25.8466 17.3246 25.8466C17.6957 25.8466 18.0668 25.7935 18.4113 25.6872C16.5029 25.3152 15.0717 23.6413 15.0717 21.622C15.0717 21.5954 15.0717 21.5954 15.0717 21.5688C15.6283 21.8877 16.2644 22.0737 16.9535 22.1002C15.8403 21.3563 15.0982 20.0809 15.0982 18.6196C15.0982 17.849 15.3102 17.1316 15.6548 16.5205C17.6957 19.0447 20.7703 20.692 24.216 20.878C24.1365 20.5857 24.1099 20.2403 24.1099 19.9215C24.1099 17.6099 25.9653 15.75 28.2713 15.75C29.464 15.75 30.5507 16.2548 31.2929 17.0519C32.2471 16.8659 33.1217 16.5205 33.9434 16.0423C33.6253 17.0254 32.9627 17.8225 32.1145 18.3539C32.9627 18.2476 33.7579 18.035 34.5 17.6896C33.9699 18.5399 33.2808 19.2838 32.4591 19.8684Z" fill="#161718"/>
</svg>
