<svg width="10" height="10" viewBox="0 0 10 10" fill="none" xmlns="http://www.w3.org/2000/svg">
<path d="M5.17553 8.475C5.06651 8.41104 4.93349 8.41104 4.82447 8.47499L2.30827 9.95107C2.0413 10.1077 1.72144 9.8652 1.78094 9.55131L2.34338 6.58428C2.36758 6.45663 2.32671 6.325 2.23542 6.23652L0.115244 4.18193C-0.108982 3.96464 0.0130988 3.57253 0.316727 3.53479L3.1825 3.1786C3.30643 3.16319 3.41379 3.08155 3.46596 2.96304L4.67419 0.218181C4.80224 -0.0727263 5.19776 -0.0727275 5.32581 0.21818L6.53404 2.96304C6.58621 3.08155 6.69357 3.16319 6.8175 3.1786L9.68327 3.53479C9.9869 3.57253 10.109 3.96464 9.88476 4.18193L7.76458 6.23652C7.67329 6.325 7.63242 6.45663 7.65661 6.58428L8.21906 9.55131C8.27856 9.8652 7.9587 10.1077 7.69173 9.95107L5.17553 8.475Z" fill="#FFB905"/>
</svg>
