<svg width="8" height="6" viewBox="0 0 8 6" fill="none" xmlns="http://www.w3.org/2000/svg">
<path d="M2.66872 1.99692C3.11384 1.32923 3.33641 0.995391 3.61693 0.879056C3.86218 0.777349 4.13782 0.777349 4.38307 0.879056C4.66359 0.995391 4.88616 1.32923 5.33128 1.99692L6.34165 3.51248C6.88036 4.32054 7.14971 4.72456 7.1297 5.0596C7.11228 5.35148 6.96798 5.62111 6.73479 5.79751C6.46712 6 5.98154 6 5.01037 6H2.98963C2.01846 6 1.53288 6 1.26521 5.79751C1.03202 5.62111 0.887722 5.35148 0.870295 5.0596C0.85029 4.72456 1.11964 4.32054 1.65835 3.51248L2.66872 1.99692Z" fill="#161718"/>
</svg>
